<svg xmlns="http://www.w3.org/2000/svg" xmlns:xlink="http://www.w3.org/1999/xlink" x="0px" y="0px" viewBox="0 0 2000 2000" style="enable-background:new 0 0 2000 2000;" xml:space="preserve"><style type="text/css">	.st0{fill:#FFFFFF;}	.st1{fill:#07448E;}	.st2{display:none;}	.st3{display:inline;fill:#FFFFFF;stroke:#07448E;stroke-miterlimit:10;}	.st4{fill:#C2E2FF;}	.st5{display:inline;fill:#D886AF;}	.st6{display:inline;fill:#4D2557;}	.st7{display:inline;fill:#E7EEF9;}	.st8{display:inline;fill:#BF6D9A;}	.st9{fill:#0F77EA;}	.st10{fill:#07448E;stroke:#07448E;stroke-width:3;stroke-miterlimit:10;}	.st11{display:none;fill:none;stroke:#FFB92C;stroke-miterlimit:10;}	.st12{display:none;fill:#C4C4C4;}	.st13{display:none;fill:#0B76A8;}	.st14{fill:#1BAFF4;}</style><g id="AYLANA">	<g>		<path class="st0" d="M1000,1974.5c-131.56,0-259.18-25.76-379.32-76.58c-116.04-49.08-220.26-119.35-309.76-208.85   c-89.5-89.5-159.77-193.72-208.85-309.76C51.26,1259.18,25.5,1131.56,25.5,1000c0-131.56,25.76-259.18,76.58-379.32   c49.08-116.04,119.35-220.26,208.85-309.76c89.5-89.5,193.72-159.77,309.76-208.85C740.82,51.26,868.44,25.5,1000,25.5   c131.56,0,259.18,25.76,379.32,76.58c116.04,49.08,220.26,119.35,309.76,208.85c89.5,89.5,159.77,193.72,208.85,309.76   c50.81,120.13,76.58,247.75,76.58,379.32c0,131.56-25.76,259.18-76.58,379.32c-49.08,116.04-119.35,220.26-208.85,309.76   c-89.5,89.5-193.72,159.77-309.76,208.85C1259.18,1948.74,1131.56,1974.5,1000,1974.5z"></path>		<path class="st1" d="M1000,38c65.29,0,130.53,6.58,193.9,19.54c61.75,12.64,122.5,31.49,180.54,56.04   c57,24.11,111.97,53.95,163.4,88.69c50.94,34.42,98.85,73.95,142.39,117.48c43.54,43.54,83.07,91.45,117.48,142.39   c34.74,51.43,64.58,106.4,88.69,163.4c24.55,58.05,43.41,118.79,56.04,180.54c12.97,63.38,19.54,128.62,19.54,193.9   s-6.58,130.53-19.54,193.9c-12.64,61.75-31.49,122.5-56.04,180.54c-24.11,57-53.95,111.97-88.69,163.4   c-34.42,50.94-73.95,98.85-117.48,142.39c-43.54,43.54-91.45,83.07-142.39,117.48c-51.43,34.74-106.4,64.58-163.4,88.69   c-58.05,24.55-118.79,43.41-180.54,56.04c-63.38,12.97-128.62,19.54-193.9,19.54s-130.53-6.58-193.9-19.54   c-61.75-12.64-122.5-31.49-180.54-56.04c-57-24.11-111.97-53.95-163.4-88.69c-50.94-34.42-98.85-73.95-142.39-117.48   c-43.54-43.54-83.07-91.45-117.48-142.39c-34.74-51.43-64.58-106.4-88.69-163.4c-24.55-58.05-43.41-118.79-56.04-180.54   C44.58,1130.53,38,1065.29,38,1000s6.58-130.53,19.54-193.9c12.64-61.75,31.49-122.5,56.04-180.54   c24.11-57,53.95-111.97,88.69-163.4c34.42-50.94,73.95-98.85,117.48-142.39c43.54-43.54,91.45-83.07,142.39-117.48   c51.43-34.74,106.4-64.58,163.4-88.69C683.6,89.04,744.34,70.18,806.1,57.54C869.47,44.58,934.71,38,1000,38 M1000,13   c-545.1,0-987,441.89-987,987s441.89,987,987,987s987-441.9,987-987S1545.1,13,1000,13L1000,13z"></path>	</g>	<g>		<path class="st1" d="M1000,282.67c96.85,0,190.79,18.96,279.21,56.36c42.5,17.98,83.49,40.23,121.84,66.13   c37.99,25.67,73.71,55.14,106.18,87.61c32.47,32.47,61.94,68.19,87.61,106.18c25.91,38.35,48.16,79.34,66.13,121.84   c37.4,88.42,56.36,182.36,56.36,279.21s-18.96,190.79-56.36,279.21c-17.98,42.5-40.23,83.49-66.13,121.84   c-25.67,37.99-55.14,73.71-87.61,106.18c-32.47,32.47-68.19,61.94-106.18,87.61c-38.35,25.91-79.34,48.16-121.84,66.13   c-88.42,37.4-182.36,56.36-279.21,56.36s-190.79-18.96-279.21-56.36c-42.5-17.98-83.49-40.23-121.84-66.13   c-37.99-25.67-73.71-55.14-106.18-87.61c-32.47-32.47-61.94-68.19-87.61-106.18c-25.91-38.35-48.16-79.34-66.13-121.84   c-37.4-88.42-56.36-182.36-56.36-279.21s18.96-190.79,56.36-279.21c17.98-42.5,40.23-83.49,66.13-121.84   c25.67-37.99,55.14-73.71,87.61-106.18c32.47-32.47,68.19-61.94,106.18-87.61c38.35-25.91,79.34-48.16,121.84-66.13   C809.21,301.63,903.15,282.67,1000,282.67 M1000,257.67c-409.98,0-742.33,332.35-742.33,742.33s332.35,742.33,742.33,742.33   s742.33-332.35,742.33-742.33S1409.98,257.67,1000,257.67L1000,257.67z"></path>	</g>	<g>		<path class="st1" d="M1000,241c102.55,0,201.93,20.04,295.38,59.57c44.93,19.01,88.29,42.54,128.85,69.95   c40.23,27.18,78.07,58.4,112.46,92.79c34.39,34.39,65.61,72.23,92.79,112.46c27.41,40.57,50.94,83.92,69.95,128.85   C1738.96,798.07,1759,897.45,1759,1000s-20.04,201.93-59.57,295.38c-19.01,44.93-42.54,88.29-69.95,128.85   c-27.18,40.23-58.4,78.07-92.79,112.46c-34.39,34.39-72.23,65.61-112.46,92.79c-40.57,27.41-83.92,50.94-128.85,69.95   c-93.45,39.53-192.83,59.57-295.38,59.57s-201.93-20.04-295.38-59.57c-44.93-19.01-88.29-42.54-128.85-69.95   c-40.23-27.18-78.07-58.4-112.46-92.79c-34.39-34.39-65.61-72.23-92.79-112.46c-27.41-40.57-50.94-83.92-69.95-128.85   C261.04,1201.93,241,1102.55,241,1000s20.04-201.93,59.57-295.38c19.01-44.93,42.54-88.29,69.95-128.85   c27.18-40.23,58.4-78.07,92.79-112.46c34.39-34.39,72.23-65.61,112.46-92.79c40.57-27.41,83.92-50.94,128.85-69.95   C798.07,261.04,897.45,241,1000,241 M1000,55C478.09,55,55,478.09,55,1000s423.09,945,945,945s945-423.09,945-945   S1521.91,55,1000,55L1000,55z"></path>	</g>	<g class="st2">		<polygon class="st3" points="177.78,1179.75 191.49,1193.46 210.88,1193.46 210.88,1212.85 224.59,1226.56 210.88,1240.27    210.88,1259.66 191.49,1259.66 177.78,1273.37 164.07,1259.66 144.68,1259.66 144.68,1240.27 130.96,1226.56 144.68,1212.85    144.68,1193.46 164.07,1193.46   "></polygon>	</g>	<g class="st2">		<polygon class="st3" points="1818.74,1180.03 1832.45,1193.74 1851.84,1193.74 1851.84,1213.13 1865.55,1226.84 1851.84,1240.56    1851.84,1259.95 1832.45,1259.95 1818.74,1273.66 1805.03,1259.95 1785.64,1259.95 1785.64,1240.56 1771.93,1226.84    1785.64,1213.13 1785.64,1193.74 1805.03,1193.74   "></polygon>	</g>	<g>		<path class="st0" d="M191.16,1087.39c0.98,10.18-0.11,18.97-3.27,26.39c-3.17,7.42-8.16,13.3-14.99,17.64   c-6.83,4.34-15.24,6.99-25.24,7.96c-9.38,0.91-17.84-0.19-25.39-3.29c-7.54-3.1-13.69-7.99-18.42-14.69   c-4.74-6.69-7.58-14.99-8.54-24.88c-1.04-10.79,0.18-19.88,3.66-27.24c3.48-7.36,8.65-13.09,15.5-17.19   c6.85-4.09,14.86-6.58,24.04-7.47c6.17-0.6,12.21-0.26,18.13,0.99c5.91,1.26,11.33,3.58,16.25,6.98   c4.92,3.39,8.99,7.95,12.22,13.67C188.33,1071.99,190.35,1079.03,191.16,1087.39z M179.9,1087.49c-0.49-5.11-2.34-9.21-5.55-12.31   c-3.21-3.1-7.5-5.24-12.89-6.43c-5.39-1.18-11.58-1.44-18.57-0.76c-8.06,0.78-14.89,2.33-20.48,4.66   c-5.59,2.33-9.75,5.47-12.48,9.44s-3.82,8.79-3.27,14.48c0.53,5.44,2.48,9.68,5.87,12.72c3.39,3.04,7.76,5.07,13.11,6.09   c5.35,1.02,11.24,1.22,17.66,0.6c7.98-0.77,14.81-2.31,20.48-4.6c5.68-2.29,9.92-5.42,12.74-9.37   C179.32,1098.05,180.45,1093.21,179.9,1087.49z"></path>		<path class="st0" d="M183.91,1029.29l-5.89-0.06l-4.12-10.29c-0.2-0.58-0.53-1.1-0.98-1.56c-0.45-0.46-1.13-0.69-2.04-0.7   l-65.97-0.64c-0.87-0.01-1.49,0.2-1.87,0.64c-0.38,0.43-0.69,0.96-0.94,1.57l-4.32,10.2l-5.89-0.06l0.46-46.94l5.89,0.06   l4.12,10.22c0.24,0.62,0.55,1.18,0.91,1.66c0.37,0.48,0.99,0.72,1.85,0.73l67.33,0.66l0.29-30.11c0.01-0.62-0.18-1.2-0.57-1.74   c-0.39-0.54-1.01-0.9-1.88-1.07l-19.19-3.66l0.1-9.87l33.48,0.33L183.91,1029.29z"></path>		<path class="st0" d="M183.8,940.13l-5.83-0.87l-3.14-10.83c-0.19-0.66-0.44-1.23-0.75-1.71c-0.3-0.48-0.9-0.79-1.8-0.93   l-64.87-9.73c-0.86-0.13-1.5-0.01-1.93,0.34s-0.82,0.84-1.16,1.46l-5.69,9.51l-5.83-0.87l6.38-42.49l54.6-10.02l10.77-1.15   l0.2-1.35l-59.19-30.04l6.27-41.82l5.82,0.87l2.67,10.63c0.15,0.65,0.38,1.25,0.67,1.8c0.29,0.55,0.87,0.88,1.73,1.01l65.24,9.79   c0.9,0.13,1.6,0,2.1-0.41c0.5-0.41,0.92-0.92,1.27-1.54l5.67-9.38l5.82,0.87l-6.92,46.12l-5.83-0.88l-2.68-10.57   c-0.18-0.74-0.44-1.36-0.78-1.88c-0.34-0.51-0.96-0.83-1.86-0.97l-62.17-9.33l-0.22,1.47l8.76,4.27l49.46,25.94l12.93,7.84   l-1.94,12.96L122.21,901l-9.6,1.32l-0.21,1.41l61.81,9.27c0.9,0.13,1.56,0.01,2-0.36c0.43-0.37,0.83-0.83,1.21-1.36l6.16-9.31   l5.83,0.87L183.8,940.13z"></path>		<path class="st0" d="M204.59,809.84l-5.64-1.71l-1.18-7.43c-0.29-1.6-1.1-2.93-2.42-3.98l-55.04-43.92l-12.42-11.81l4.95-16.34   l86.63-6.26c0.76-0.07,1.5-0.24,2.22-0.49c0.73-0.26,1.32-0.66,1.79-1.21l4.96-5.89l5.64,1.71l-12.24,40.41l-5.64-1.71   l-0.96-11.38l-55.96,4.65l-8.85-0.28l-0.41,1.37l51.04,39.79l7.52-9.01l5.64,1.71L204.59,809.84z M185.54,774.35l-9.43-7.59   l7.58-25.02l12-0.91L185.54,774.35z"></path>		<path class="st0" d="M236.19,708.75l-5.4-2.34l0.21-11.08c0.04-0.61-0.06-1.22-0.29-1.82c-0.24-0.6-0.77-1.08-1.61-1.44   l-60.52-26.24c-0.8-0.35-1.45-0.39-1.97-0.14c-0.51,0.25-1.01,0.61-1.48,1.08l-7.94,7.72l-5.4-2.34l18.67-43.07l5.4,2.34   l-0.18,11.02c-0.02,0.67,0.05,1.3,0.2,1.88c0.15,0.59,0.63,1.05,1.42,1.4l61.77,26.79l11.98-27.63c0.25-0.57,0.3-1.18,0.15-1.83   c-0.15-0.65-0.58-1.22-1.31-1.72l-16.25-10.84l3.93-9.06l30.72,13.32L236.19,708.75z"></path>		<path class="st0" d="M273.12,626.69l-5.17-2.83l1.52-11.56c0.1-0.79,0.06-1.45-0.12-1.98c-0.18-0.53-0.67-1.01-1.47-1.44   l-57.87-31.67c-0.76-0.42-1.42-0.53-1.97-0.34c-0.55,0.19-1.07,0.51-1.55,0.96l-8.92,7.51l-5.17-2.83l23.16-42.32l5.17,2.83   l-1.52,11.56c-0.1,0.7-0.1,1.34,0.01,1.92c0.11,0.58,0.54,1.08,1.3,1.49l57.87,31.67c0.8,0.44,1.5,0.56,2.1,0.37   c0.6-0.19,1.17-0.52,1.7-0.98l8.92-7.51l5.17,2.83L273.12,626.69z"></path>		<path class="st0" d="M262.91,548.31c-7.77-5.33-13.55-11.61-17.34-18.83c-3.79-7.22-5.35-14.92-4.67-23.09   c0.67-8.17,3.82-16.36,9.45-24.55c6.14-8.94,12.91-15.11,20.31-18.52c7.4-3.4,15.04-4.47,22.92-3.2   c7.88,1.27,15.62,4.51,23.22,9.73c5.11,3.51,9.53,7.65,13.25,12.41c3.72,4.77,6.38,10.03,7.96,15.79   c1.59,5.76,1.78,11.87,0.58,18.32c-1.2,6.46-4.18,13.15-8.94,20.08c-5.79,8.43-12.28,14.47-19.47,18.12   c-7.19,3.65-14.8,4.94-22.82,3.88C279.34,557.37,271.19,554,262.91,548.31z M274.6,527.56c6.61,4.54,12.83,7.75,18.65,9.64   c5.82,1.89,11.08,2.22,15.78,1.01c4.7-1.22,8.67-4.2,11.93-8.94c2.9-4.23,4.13-8.56,3.66-13c-0.46-4.43-2.38-8.84-5.75-13.21   c-3.37-4.37-7.95-8.54-13.74-12.52c-6.68-4.58-12.91-7.78-18.69-9.59c-5.78-1.81-10.99-2.07-15.63-0.79   c-4.64,1.28-8.58,4.28-11.81,8.99c-3.09,4.5-4.32,9.01-3.68,13.52c0.64,4.51,2.68,8.87,6.13,13.1   C264.9,519.98,269.28,523.91,274.6,527.56z M381.86,512.86l-13.78,20.07c-1.66,2.42-3.1,4.09-4.3,5c-1.2,0.91-2.57,1.42-4.11,1.55   c-1.54,0.12-3.63,0.21-6.27,0.25c-3.14,0.05-6.57,0.1-10.28,0.13c-3.71,0.04-7.1,0.06-10.16,0.07c-3.06,0.01-5.16,0.02-6.28,0.06   l9.85-20.81l25.68-0.82c0.88-0.05,1.9-0.2,3.06-0.46c1.16-0.26,2.11-0.68,2.87-1.27l8.86-7.1L381.86,512.86z"></path>		<path class="st0" d="M388.54,455.27l-4.18-4.15l4.23-10.24c0.26-0.62,0.39-1.23,0.39-1.84c0-0.61-0.32-1.24-0.97-1.88l-46.79-46.5   c-0.62-0.61-1.21-0.89-1.78-0.85c-0.57,0.05-1.16,0.2-1.78,0.47l-10.21,4.29l-4.18-4.15l33.05-33.25   c2.86-2.88,6.19-5.63,10.01-8.26c3.81-2.63,7.97-4.78,12.47-6.43c4.5-1.65,9.24-2.49,14.21-2.51c4.97-0.02,10.09,1.1,15.34,3.34   c5.26,2.25,10.51,5.98,15.75,11.19c7.42,7.37,11.94,15.03,13.57,22.98c1.63,7.95,0.91,15.79-2.14,23.52   c-3.05,7.73-7.92,14.96-14.6,21.69L388.54,455.27z M355.8,374.23l48.72,48.43l8.97-9.03c6.39-6.43,9.02-13.11,7.87-20.06   c-1.14-6.94-5.35-14.03-12.62-21.25c-5.33-5.3-10.76-9.01-16.26-11.12c-5.5-2.12-10.83-2.65-15.97-1.61   c-5.15,1.04-9.85,3.71-14.11,7.99L355.8,374.23z"></path>		<path class="st0" d="M458.47,384.95l-3.62-4.64l3.31-6.76c0.68-1.48,0.79-3.03,0.31-4.65l-19.71-67.6l-3.36-16.81l13.46-10.51   l74.43,44.77c0.66,0.38,1.36,0.67,2.1,0.88c0.74,0.21,1.46,0.22,2.16,0.04l7.45-1.96l3.63,4.64l-33.28,25.99l-3.63-4.64l5.77-9.86   l-48.43-28.42l-7.08-5.33l-1.13,0.88l18.82,61.93l11.34-3.03l3.63,4.64L458.47,384.95z M463.33,344.97l-3.33-11.63l20.6-16.09   l10.33,6.17L463.33,344.97z"></path>		<path class="st0" d="M568.84,305.93l-69.99-52.41c-0.51-0.37-1.12-0.69-1.84-0.99c-0.71-0.29-1.46-0.37-2.25-0.23l-7.57,1.05   l-3.06-5.03l36.23-22.05l3.06,5.03l-6.86,9.04l45.29,33.91l6.02,6.06l1.17-0.71l-11.62-63.63l-11.35,1.54l-3.06-5.03l28.43-17.31   l3.06,5.03l-3.9,6.01c-0.49,0.78-0.84,1.58-1.06,2.38c-0.21,0.81-0.25,1.56-0.12,2.25l11.9,69.7l1.75,16.72L568.84,305.93z"></path>		<path class="st0" d="M623.42,272.38l-2.45-5.36l7.56-8.1c0.44-0.43,0.77-0.94,1-1.55c0.22-0.6,0.15-1.32-0.23-2.14l-27.46-59.98   c-0.36-0.79-0.82-1.26-1.37-1.42c-0.55-0.16-1.16-0.22-1.83-0.19l-11.07,0.43l-2.45-5.36l42.68-19.54l2.45,5.36l-7.5,8.07   c-0.46,0.48-0.83,0.99-1.11,1.53c-0.28,0.54-0.24,1.2,0.12,1.99l28.03,61.22l27.38-12.53c0.56-0.26,1.01-0.68,1.34-1.26   c0.33-0.58,0.38-1.3,0.17-2.16l-4.84-18.92l8.98-4.11l13.94,30.44L623.42,272.38z"></path>		<path class="st0" d="M698,237.76l-1.81-5.61l5.43-5.21c1.15-1.15,1.78-2.57,1.89-4.26l4.74-70.26l2.63-16.94l16.25-5.24   l54.5,67.64c0.49,0.58,1.05,1.1,1.67,1.54c0.62,0.45,1.29,0.71,2.01,0.78l7.67,0.72l1.81,5.61l-40.19,12.96l-1.81-5.61l8.81-7.27   l-35.7-43.34l-4.81-7.44l-1.36,0.44l-3.63,64.62l11.69,1.05l1.81,5.61L698,237.76z M716.31,201.88l0.87-12.07l24.88-8.02   l7.58,9.35L716.31,201.88z"></path>		<path class="st0" d="M810.43,204.02l-1.17-5.77l9.75-6.27c0.63-0.42,1.11-0.88,1.43-1.36c0.32-0.49,0.4-1.18,0.22-2.07l-13.34-66   l-18.2,3.68c-0.73,0.15-1.27,0.46-1.62,0.93c-0.35,0.47-0.54,1.13-0.58,1.98l-0.39,14.06l-9.43,1.91l-5.48-27.1l88.31-17.85   l5.48,27.1l-9.49,1.92l-5.82-12.8c-0.32-0.74-0.77-1.26-1.36-1.56c-0.59-0.3-1.17-0.4-1.74-0.28l-18.2,3.68l13.34,66   c0.18,0.89,0.55,1.51,1.11,1.86c0.56,0.35,1.14,0.57,1.75,0.66l11.43,1.99l1.17,5.77L810.43,204.02z"></path>		<path class="st0" d="M945.84,184.26l-0.19-5.89l10.67-4.56c0.69-0.31,1.24-0.68,1.64-1.11c0.4-0.43,0.59-1.09,0.56-2l-2.13-67.3   L937.83,104c-0.74,0.02-1.33,0.24-1.75,0.64c-0.42,0.41-0.72,1.03-0.9,1.86l-2.73,13.79l-9.62,0.3l-0.87-27.64l90.05-2.85   l0.87,27.64l-9.68,0.31l-3.6-13.6c-0.19-0.78-0.55-1.37-1.08-1.76c-0.53-0.4-1.09-0.59-1.67-0.57l-18.56,0.59l2.13,67.3   c0.03,0.91,0.29,1.58,0.78,2.02c0.49,0.44,1.03,0.75,1.61,0.94l10.93,3.87l0.19,5.89L945.84,184.26z"></path>		<path class="st0" d="M1023.08,182.4l0.52-5.87l10.58-3.3c0.68-0.19,1.25-0.48,1.7-0.88c0.45-0.4,0.72-1.05,0.8-1.95l5.82-65.71   c0.08-0.86-0.09-1.5-0.49-1.91c-0.4-0.41-0.9-0.76-1.5-1.07l-9.83-5.1l0.52-5.87l81.46,7.21l-2.32,26.25l-9.71-0.86l-2.08-12.38   c-0.14-0.8-0.41-1.43-0.83-1.88c-0.42-0.45-0.98-0.71-1.68-0.77l-31.61-2.8l-2.37,26.74l16.7,1.48c0.87,0.08,1.48-0.05,1.84-0.37   c0.36-0.32,0.72-0.92,1.09-1.8l4.03-9.6l7.98,0.71l-3.16,35.63l-7.98-0.71l-2.29-10.04c-0.14-0.76-0.38-1.38-0.71-1.87   c-0.33-0.49-0.93-0.77-1.8-0.84l-16.7-1.48l-2.68,30.32l36.37,3.22c0.58,0.05,1.14-0.14,1.7-0.57c0.56-0.43,0.95-0.98,1.18-1.67   l4.41-13.24l9.59,0.85l-2.45,27.73L1023.08,182.4z"></path>		<path class="st0" d="M1115.53,190.59l1.24-5.76l8.87-1.08c0.74-0.1,1.5-0.4,2.29-0.9c0.79-0.51,1.51-1.03,2.18-1.56l32.08-26.09   l-17.11-40.13c-0.31-0.74-0.72-1.48-1.24-2.2c-0.52-0.72-1.1-1.28-1.74-1.67l-7.28-4.54l1.24-5.76l42.74,9.17l-1.24,5.76   l-8.46,2.43l8.2,19.51l2.19,8.14l0.49,0.1l23.61-20.04l-6.47-5.95l1.24-5.76l32.05,6.88l-1.24,5.76l-8.26,1.21   c-0.57,0.09-1.25,0.35-2.04,0.77c-0.79,0.42-1.55,0.94-2.27,1.54l-31.21,25.58l17.63,40.94c0.4,0.89,0.85,1.7,1.35,2.42   c0.5,0.72,1.05,1.27,1.65,1.65l7.22,4.53l-1.24,5.76l-42.56-9.14l1.24-5.76l8.53-2.48l-8.84-20.67l-2.17-7.95l-0.49-0.1   l-24.64,20.71l6.47,5.95l-1.24,5.76L1115.53,190.59z"></path>		<path class="st0" d="M1217.58,212.77l1.98-5.55l11.23-0.99c0.72-0.05,1.34-0.18,1.86-0.39c0.51-0.21,0.92-0.74,1.23-1.6   l22.1-61.76c0.29-0.82,0.3-1.47,0.01-1.97c-0.28-0.5-0.68-0.97-1.18-1.41l-8.58-7.55l1.99-5.55l32.45,11.61l17.51,64.61l1.63,9.08   l1.29,0.46l16.73-46.76c0.22-0.62,0.26-1.15,0.1-1.58c-0.16-0.43-0.62-1.02-1.41-1.79l-8.02-7.81l1.98-5.55l35.66,12.76   l-1.98,5.55l-11.21,0.93c-0.96,0.1-1.66,0.26-2.09,0.5c-0.44,0.24-0.77,0.67-0.99,1.29l-21.83,61l-6.78,13.05l-14.15-5.06   l-19.74-71.99l-1.48-8.96l-1.23-0.44l-18.51,51.72c-0.26,0.74-0.29,1.37-0.08,1.88c0.21,0.52,0.59,1.05,1.14,1.59l7.94,7.85   l-1.98,5.55L1217.58,212.77z"></path>		<path class="st0" d="M1324.1,253.1l2.57-5.3l11.62,0.94c0.8,0.07,1.45-0.01,1.97-0.22c0.51-0.21,0.97-0.72,1.37-1.54l28.76-59.37   c0.38-0.78,0.46-1.44,0.24-1.99c-0.22-0.54-0.57-1.04-1.03-1.5l-7.94-8.53l2.57-5.3l43.42,21.03l-2.57,5.3l-11.62-0.94   c-0.7-0.07-1.34-0.03-1.92,0.11c-0.57,0.14-1.05,0.6-1.42,1.38l-28.76,59.37c-0.4,0.82-0.48,1.52-0.26,2.11   c0.22,0.59,0.57,1.14,1.06,1.65l7.94,8.53l-2.57,5.3L1324.1,253.1z"></path>		<path class="st0" d="M1378.38,278.8l3.09-5.01l10.93,1.79c0.75,0.12,1.4,0.11,1.95-0.03c0.55-0.15,1.07-0.6,1.54-1.38l34.63-56.15   c0.46-0.74,0.6-1.38,0.42-1.92c-0.17-0.54-0.46-1.09-0.86-1.62l-6.51-8.97l3.09-5.01l39.95,24.64l-3.09,5.01l-10.88-1.76   c-0.66-0.11-1.29-0.14-1.89-0.07s-1.13,0.47-1.58,1.21l-18.1,29.34l49.25-13.84l-2.79-6.24l3.09-5.01l29.54,18.22l-3.09,5.01   l-11.04-2.8c-0.89-0.21-1.81-0.34-2.75-0.39c-0.94-0.05-1.98,0.06-3.12,0.33l-34.99,8.94l4.7,51.05c0.1,0.7,0.29,1.62,0.55,2.78   c0.26,1.16,0.59,2,0.99,2.54l6.24,7.86l-2.93,4.75l-34.62-21.35l2.93-4.75l4.95-0.81l-3.56-39.64l-6.73-1.16l-13.15,21.32   c-0.48,0.77-0.63,1.47-0.45,2.09c0.18,0.62,0.46,1.2,0.86,1.73l6.45,8.93l-3.09,5.01L1378.38,278.8z"></path>		<path class="st0" d="M1461.42,330.03l3.69-4.59l7.33,1.68c1.59,0.33,3.13,0.07,4.59-0.76l61.3-34.66l15.59-7.12l13.31,10.69   l-26.54,82.71c-0.21,0.73-0.34,1.48-0.37,2.25c-0.03,0.77,0.12,1.47,0.45,2.11l3.62,6.8l-3.69,4.59l-32.92-26.45l3.69-4.59   l10.92,3.36l16.58-53.65l3.57-8.11l-1.11-0.89l-55.97,32.49l5.55,10.34l-3.69,4.59L1461.42,330.03z M1501.45,325.6l10.56-5.91   l20.38,16.37l-3.64,11.47L1501.45,325.6z"></path>		<path class="st0" d="M1573.46,427l4.33-4l10.47,5.12c0.72,0.35,1.36,0.52,1.91,0.52c0.56-0.01,1.17-0.32,1.84-0.94l48.45-44.77   c0.64-0.59,0.95-1.18,0.95-1.76c-0.01-0.59-0.14-1.18-0.41-1.77l-4.28-10.84l4.33-4l32.74,35.44l-4.33,4l-10.47-5.12   c-0.63-0.32-1.24-0.52-1.82-0.6c-0.58-0.08-1.19,0.17-1.83,0.76l-48.45,44.77c-0.67,0.62-1.01,1.24-1.02,1.87   c-0.01,0.63,0.12,1.27,0.39,1.93l4.28,10.84l-4.33,4L1573.46,427z"></path>		<path class="st0" d="M1614.75,470.51l4.72-3.52l9.9,5.4c0.63,0.36,1.21,0.59,1.76,0.7c0.54,0.11,1.18-0.11,1.91-0.65l52.62-39.17   c0.7-0.52,1.06-1.06,1.1-1.63c0.04-0.57-0.03-1.18-0.2-1.83l-2.96-11.03l4.72-3.52l20.58,27.64l-21.23,63.48l-3.67,8.46l0.82,1.1   l39.84-29.65c0.53-0.39,0.85-0.81,0.96-1.26c0.11-0.44,0.05-1.2-0.18-2.27l-2.35-10.95l4.72-3.52l22.62,30.38l-4.72,3.52   l-9.85-5.44c-0.85-0.45-1.52-0.7-2.02-0.74s-1.01,0.13-1.54,0.53l-51.97,38.69l-12.88,7.11l-8.97-12.05l23.46-70.87l3.73-8.27   l-0.78-1.05l-44.07,32.8c-0.63,0.47-1,0.98-1.11,1.52c-0.11,0.55-0.09,1.2,0.07,1.96l2.26,10.93l-4.72,3.52L1614.75,470.51z"></path>		<path class="st0" d="M1684.83,561.35l23.77-13.52l4.79,8.42l-8.65,8.49c-0.58,0.57-0.97,1.3-1.17,2.2   c-0.2,0.9-0.32,1.86-0.36,2.88c-0.01,1.24,0.09,3,0.28,5.27c0.2,2.27,0.56,4.65,1.09,7.13c0.53,2.48,1.3,4.61,2.3,6.37   c2.76,4.86,6.02,8.3,9.77,10.34c3.75,2.04,7.33,2.08,10.74,0.14c3.2-1.82,4.9-4.09,5.12-6.8c0.21-2.72,0.04-6.11-0.51-10.17   c-0.58-3.95-1.34-7.75-2.27-11.39c-0.93-3.64-1.68-7.27-2.27-10.89c-0.84-5.57-0.38-10.77,1.37-15.6   c1.75-4.83,5.39-8.81,10.92-11.96c5.07-2.88,10.31-3.85,15.74-2.92c5.43,0.94,10.54,3.27,15.32,7c4.79,3.73,8.74,8.35,11.87,13.86   c1.78,3.13,3.44,6.48,4.97,10.06c1.54,3.58,2.9,7.07,4.11,10.49c1.2,3.41,2.21,6.41,3.01,9l-23.12,13.15l-4.79-8.42l8.3-8.36   c0.44-0.49,0.76-1.13,0.96-1.94s0.32-1.53,0.34-2.16c0.02-0.72-0.07-2.01-0.26-3.85c-0.19-1.84-0.56-3.85-1.1-6.02   c-0.54-2.17-1.32-4.13-2.32-5.9c-2.68-4.71-5.68-7.69-9-8.92c-3.32-1.23-6.14-1.19-8.48,0.14c-2.52,1.43-4.17,3.45-4.96,6.07   c-0.79,2.62-0.65,6.59,0.44,11.93c0.69,3.56,1.44,7.04,2.26,10.43c0.81,3.39,1.52,7.21,2.12,11.44c0.52,3.51,0.62,6.94,0.29,10.3   c-0.33,3.35-1.38,6.5-3.16,9.44c-1.78,2.94-4.62,5.52-8.54,7.75c-4.74,2.7-9.88,3.88-15.42,3.55c-5.54-0.33-11.05-2.46-16.54-6.38   c-5.49-3.93-10.56-9.98-15.2-18.14c-1.51-2.66-3-5.88-4.45-9.65c-1.45-3.77-2.81-7.66-4.08-11.68   C1686.82,568.51,1685.73,564.78,1684.83,561.35z"></path>		<path class="st0" d="M1730.99,654.6l5.41-2.33l8.14,8.26c0.54,0.53,1.09,0.91,1.63,1.12c0.54,0.22,1.23,0.15,2.07-0.21   l61.86-26.58l-7.33-17.06c-0.29-0.68-0.71-1.15-1.24-1.39c-0.53-0.24-1.22-0.3-2.06-0.16l-13.84,2.5l-3.8-8.84l25.41-10.92   l35.57,82.78l-25.41,10.92l-3.82-8.9l11.34-8.32c0.66-0.46,1.07-1.01,1.25-1.65c0.17-0.64,0.15-1.22-0.08-1.76l-7.33-17.06   l-61.86,26.58c-0.84,0.36-1.37,0.85-1.6,1.46c-0.23,0.62-0.33,1.23-0.29,1.85l0.39,11.59l-5.41,2.33L1730.99,654.6z"></path>		<path class="st0" d="M1760.37,726.56l5.61-1.8l7.34,9.06c0.5,0.62,1.01,1.04,1.52,1.27c0.51,0.23,1.19,0.2,2.06-0.07l62.81-20.17   c0.83-0.27,1.36-0.66,1.6-1.2c0.24-0.53,0.37-1.13,0.37-1.78l0.69-11.64l5.61-1.8l14.75,45.94l-5.61,1.8l-7.34-9.06   c-0.44-0.55-0.9-0.99-1.4-1.31c-0.49-0.32-1.15-0.35-1.98-0.08l-62.81,20.17c-0.87,0.28-1.44,0.7-1.71,1.27   c-0.27,0.57-0.43,1.2-0.46,1.91l-0.69,11.64l-5.61,1.8L1760.37,726.56z"></path>		<path class="st0" d="M1782.82,801.09l5.75-1.26l6.43,9.65c0.43,0.63,0.9,1.1,1.39,1.41c0.49,0.31,1.18,0.38,2.07,0.18l65.77-14.43   l-3.98-18.14c-0.16-0.73-0.48-1.26-0.96-1.6c-0.48-0.34-1.14-0.52-1.99-0.55l-14.06-0.16l-2.06-9.4l27.01-5.93l19.32,88   l-27.01,5.93l-2.08-9.46l12.71-6.03c0.73-0.33,1.24-0.79,1.54-1.39c0.29-0.59,0.38-1.18,0.25-1.74l-3.98-18.14l-65.77,14.44   c-0.89,0.2-1.5,0.57-1.85,1.14c-0.34,0.56-0.55,1.15-0.63,1.76l-1.8,11.46l-5.75,1.26L1782.82,801.09z"></path>		<path class="st0" d="M1801.49,925.79c-0.79-8.49-0.13-15.71,1.99-21.67c2.12-5.96,5.28-10.58,9.48-13.86   c4.2-3.28,9.03-5.18,14.51-5.69l51.42-4.82c0.86-0.08,1.45-0.38,1.75-0.88c0.3-0.51,0.57-1.1,0.8-1.79l3.26-10.41l5.86-0.55   l4.38,46.74l-5.86,0.55l-5.15-9.81c-0.25-0.47-0.6-0.94-1.03-1.4c-0.44-0.46-1.09-0.65-1.95-0.57l-45.37,4.25   c-2.51,0.23-5.06,0.73-7.64,1.5c-2.59,0.76-4.92,1.96-7.01,3.59c-2.09,1.63-3.69,3.86-4.79,6.69c-1.11,2.83-1.45,6.42-1.04,10.79   c0.41,4.33,1.42,7.83,3.04,10.5c1.62,2.67,3.63,4.72,6.02,6.14c2.4,1.42,4.97,2.33,7.73,2.74c2.76,0.41,5.45,0.49,8.09,0.24   l44.57-4.17c0.86-0.08,1.44-0.35,1.73-0.82c0.29-0.46,0.55-1,0.78-1.6l3.68-10.57l5.86-0.55l3.52,37.59l-5.86,0.55l-5.58-9.71   c-0.35-0.59-0.7-1.09-1.07-1.49c-0.37-0.4-0.99-0.56-1.85-0.48l-48.27,4.52c-5.84,0.55-10.93-0.25-15.26-2.41   c-4.33-2.15-7.97-5.1-10.92-8.83c-2.94-3.74-5.22-7.77-6.83-12.11C1802.83,933.65,1801.84,929.58,1801.49,925.79z"></path>		<path class="st0" d="M1807.71,1004.01l5.89,0.18l3.89,10.93c0.27,0.71,0.6,1.28,1,1.71c0.4,0.43,1.05,0.65,1.96,0.68l67.3,2.03   l0.56-18.56c0.02-0.74-0.16-1.34-0.54-1.79c-0.38-0.45-0.98-0.79-1.8-1.02l-13.6-3.58l0.29-9.62l27.64,0.83l-2.71,90.06   l-27.64-0.83l0.29-9.68l13.79-2.75c0.79-0.14,1.4-0.46,1.83-0.97c0.43-0.5,0.65-1.05,0.67-1.63l0.56-18.56l-67.3-2.03   c-0.91-0.03-1.6,0.19-2.07,0.65c-0.47,0.46-0.82,0.98-1.04,1.55l-4.54,10.67l-5.89-0.18L1807.71,1004.01z"></path>		<path class="st0" d="M1803.96,1081.69l5.84,0.73l2.83,11.31c0.19,0.78,0.47,1.37,0.84,1.79s1,0.69,1.9,0.8l65.45,8.23   c0.86,0.11,1.51-0.03,1.96-0.41s0.81-0.87,1.09-1.46l5.54-10.25l5.84,0.73l-6.02,47.87l-5.84-0.73l-2.83-11.31   c-0.16-0.69-0.4-1.28-0.71-1.78c-0.31-0.5-0.9-0.8-1.76-0.91l-65.45-8.23c-0.9-0.11-1.6,0.03-2.08,0.43   c-0.49,0.4-0.89,0.91-1.22,1.54l-5.54,10.25l-5.84-0.73L1803.96,1081.69z"></path>	</g>	<g>		<g>			<polygon class="st4" points="996.68,1427.86 764.76,1316.38 781.37,1288.27    "></polygon>			<polygon class="st4" points="997.21,1427.92 808.3,1253.18 832.45,1231.2    "></polygon>			<polygon class="st4" points="997.7,1428.13 868.51,1205.58 898.05,1191.66    "></polygon>			<polygon class="st4" points="998.1,1428.47 940.04,1177.77 972.37,1173.16    "></polygon>			<polygon class="st4" points="998.39,1428.92 1016.59,1172.23 1048.85,1177.32    "></polygon>			<polygon class="st4" points="998.53,1429.43 1091.39,1189.43 1120.72,1203.78    "></polygon>			<polygon class="st4" points="998.52,1429.96 1157.82,1227.86 1181.64,1250.2    "></polygon>			<polygon class="st4" points="998.35,1430.46 1210.02,1284.13 1226.22,1312.48    "></polygon>		</g>	</g>	<g>		<g class="st2">			<path class="st5" d="M1007.62,1448.95c-11.13-8.53-23.43-15.55-36.44-20.78c-8.68-3.49-17.72-6.22-25.91-10.75    c-21.67-11.99-35.03-35.73-39.36-60.12c-4.33-24.38-0.67-49.49,4.97-73.6c0.05,15.68,7.15,31.2,18.97,41.49    c10.74,9.35,24.56,14.16,37.6,19.89c20.25,8.89,39.33,20.43,56.62,34.22c7.45,5.95,14.63,12.39,20.25,20.09    c11.7,16.06,15.81,37.42,10.9,56.67c-4.76,18.66-18.49,36.48-36.36,44.24C1030.8,1481.05,1025.75,1462.86,1007.62,1448.95z"></path>			<path class="st6" d="M1052.87,1394.94c2.86-18.74-4.36-37.95-15.84-53.04c-11.48-15.09-26.91-26.65-42.52-37.4    c-9.77-6.73-19.79-13.3-28.02-21.86s-14.64-19.44-15.43-31.28c-0.79-11.84,5.01-24.52,15.74-29.58    c-16.02,3.8-30.44,14.59-37.74,29.34c-7.31,14.75-7.01,33.24,1.57,47.28c9.07,14.83,25.54,23.23,41.37,30.4    c18.47,8.36,37.46,16.21,53.46,28.66c11.76,9.16,18.32,19.84,25.61,32.85C1051.07,1390.31,1052.36,1392.01,1052.87,1394.94z"></path>			<path class="st7" d="M1000.9,1294.89c-7.71-5.56-15.49-11.18-21.86-18.23c-6.37-7.05-11.32-15.75-12.28-25.21    s2.62-19.66,10.39-25.15c5.28-3.73,11.86-5,17.78-7.58c5.63-2.46,10.71-6.15,14.78-10.75c3.13-3.53,5.72-7.74,6.3-12.42    c0.58-4.68-1.23-9.84-5.25-12.31c6.43,4.72,12.98,9.55,17.58,16.06c9.61,13.59,8.47,33.77-2.62,46.18    c-4.94,5.54-11.68,9.79-14.6,16.61c-3.35,7.8-0.71,17.02,3.93,24.13c4.64,7.11,11.1,12.82,16.42,19.44    c1.99,2.48,9.94,12.45,8.22,15.95c-1.36,2.76-4.95-1.5-6.77-3.01C1022.72,1310.11,1011.67,1302.65,1000.9,1294.89z"></path>			<path class="st8" d="M1014.21,1480.54c-2.02-12.27-13.92-20.12-25.05-25.66c-20.01-9.97-41.51-17.73-58.71-32    c-1.2,7.66,0.66,15.64,4.24,22.52c3.28,6.28,8.37,12.13,14.07,16.34c3.68,2.71,7.93,4.51,11.92,6.73    c9.21,5.14,17.06,12.69,22.54,21.69c2.63,4.32,4.76,9.08,5.11,14.13s-1.29,10.41-5.15,13.68c0.77-0.65,11.06-0.63,20.17-11.49    C1009.62,1499.01,1015.91,1490.85,1014.21,1480.54z"></path>		</g>		<g>			<g>				<g>					<path class="st9" d="M902.53,1516.1c-60.55-16.26-128.09,10.27-186.36-12.86c-1.43-0.57-2.94-1.17-4.46-0.91      c-1.22,0.21-2.27,0.96-3.27,1.69c-20.5,14.99-41,29.98-61.49,44.97c13.16-1.54,56.3,0.29,68.12,0.84      c23.01,1.07,45.98,2.93,68.86,5.56c46.08,5.32,91.79,13.81,136.71,25.4c25.21,6.51,49.81,16.05,74.95,22.27      C981.56,1561.1,945.05,1527.52,902.53,1516.1z"></path>					<path class="st9" d="M922.25,1518.35c-33.91-14.07-71.28-17.29-107.98-18.06c-24.97-0.53-52.07-0.69-71.76-16.05      c9.25-1.06,18.33-3.69,26.72-7.74c3.49,5.8,10.27,8.65,16.76,10.57c31.89,9.41,66.23,4.81,98.97,10.64      c42.55,7.59,81.48,33.67,104.68,70.14c4.29,6.75,8.46,15.36,10.31,24.91c-6.26-14.78-20.45-33.11-27.52-40.55      C958.41,1537.49,940.97,1526.12,922.25,1518.35z"></path>					<path class="st9" d="M897.38,1487.24c-16.24-3.47-33.99-3.82-50.5-5.65c-8.04-0.89-16.12-1.99-23.79-4.57      c-7.67-2.58-14.97-6.75-20.17-12.95c6.64,0.72,13.47-0.28,19.62-2.9c0.69,2.94,2.87,5.31,5.21,7.23      c6.46,5.28,14.61,8.09,22.81,9.59c8.2,1.5,16.57,1.78,24.87,2.56c21.67,2.04,43.65,7.85,61.87,20.12      c5.08,3.42,15.86,12.43,20.02,16.94C939.22,1502.02,917.19,1491.47,897.38,1487.24z"></path>					<path class="st9" d="M999.94,1617.56c0,0-144.59-55.7-363.08-56.32l-20.42,14.85C616.44,1576.1,799.17,1558.77,999.94,1617.56z      "></path>				</g>				<g>					<path class="st9" d="M1097.34,1516.46c60.55-16.26,128.09,10.27,186.36-12.86c1.43-0.57,2.94-1.17,4.46-0.91      c1.22,0.21,2.27,0.96,3.27,1.69c20.5,14.99,41,29.98,61.49,44.97c-13.16-1.54-56.3,0.29-68.12,0.84      c-23.01,1.07-45.98,2.92-68.86,5.57c-46.08,5.32-91.79,13.81-136.71,25.4c-25.21,6.51-49.81,16.04-74.95,22.27      C1018.31,1561.45,1054.82,1527.88,1097.34,1516.46z"></path>					<path class="st9" d="M1077.62,1518.71c33.91-14.07,71.28-17.29,107.98-18.06c24.97-0.53,52.07-0.69,71.76-16.05      c-9.25-1.06-18.33-3.69-26.72-7.74c-3.49,5.8-10.27,8.65-16.76,10.57c-31.89,9.41-66.23,4.81-98.97,10.64      c-42.55,7.59-81.48,33.67-104.68,70.14c-4.29,6.75-8.46,15.36-10.31,24.91c6.26-14.78,20.45-33.11,27.52-40.55      C1041.46,1537.85,1058.9,1526.48,1077.62,1518.71z"></path>					<path class="st9" d="M1102.49,1487.59c16.24-3.48,33.99-3.82,50.5-5.65c8.04-0.89,16.12-1.99,23.79-4.57      c7.67-2.58,14.97-6.75,20.17-12.95c-6.65,0.72-13.47-0.28-19.62-2.9c-0.69,2.94-2.87,5.31-5.21,7.23      c-6.46,5.28-14.61,8.09-22.81,9.59c-8.2,1.5-16.57,1.78-24.87,2.56c-21.67,2.04-43.65,7.85-61.87,20.12      c-5.08,3.42-15.86,12.43-20.02,16.94C1060.65,1502.37,1082.68,1491.83,1102.49,1487.59z"></path>					<path class="st9" d="M999.94,1617.92c0,0,144.59-55.7,363.08-56.32l20.42,14.85C1383.43,1576.45,1200.7,1559.12,999.94,1617.92      z"></path>				</g>			</g>			<g>				<path class="st1" d="M718.98,1585.11c214.4,24.81,280.95,59.36,280.95,59.36v-17.72     C876.02,1588.65,718.98,1585.11,718.98,1585.11L718.98,1585.11z"></path>			</g>			<g>				<path class="st1" d="M1280.89,1585.11c0,0-157.03,3.54-280.95,41.64v17.72C999.94,1644.47,1066.49,1609.92,1280.89,1585.11     L1280.89,1585.11z"></path>			</g>		</g>	</g>	<g>		<path class="st0" d="M161,1224.58c-5.47-2.51-9.3-4.82-11.47-6.93c-2.18-2.11-3.58-4.3-4.22-6.55c-0.58-2.05-0.31-4.06,0.82-6.04   c1.13-1.98,2.63-3.24,4.5-3.77c3.27-0.93,6.48-0.18,9.64,2.25c2.02,1.57,5.12,6.3,9.31,14.19c2.5,4.83,5.2,8.82,8.12,11.98   c0.6-4.52,0.74-9.03,0.45-13.52c-0.47-6.95-0.55-11.47-0.24-13.55c0.46-3.16,1.44-5.7,2.95-7.64c1.51-1.94,3.14-3.16,4.87-3.65   c1.95-0.55,3.95-0.23,6.01,0.95c2.06,1.19,3.42,2.94,4.08,5.26c0.54,1.91,0.51,3.91-0.1,6.01c-0.81,2.96-3.36,7.74-7.64,14.34   c-2.48,3.95-4.51,8.32-6.07,13.12c3.38-1.33,5.89-2.44,7.55-3.36c1.66-0.91,4.6-2.82,8.85-5.72c4.24-2.9,8.03-4.82,11.36-5.77   c3.2-0.91,5.73-0.85,7.59,0.17c2.6,1.48,4.25,3.48,4.97,6.01c0.52,1.84,0.06,3.86-1.38,6.04c-1.44,2.18-3.56,3.67-6.33,4.45   c-2.98,0.85-8.93,1.2-17.82,1.07c-5.06-0.12-9.59,0.32-13.59,1.31c4.17,3.32,8.35,5.9,12.55,7.73c6.27,2.8,10.49,5.24,12.65,7.32   c2.17,2.08,3.54,4.14,4.12,6.19c0.58,2.05,0.33,4.06-0.77,6.03c-1.09,1.97-2.68,3.25-4.76,3.84c-2.71,0.77-5.57,0.2-8.59-1.71   c-3.02-1.91-6.46-6.78-10.33-14.61c-2.42-4.85-5.08-8.78-7.96-11.8c-0.54,3.92-0.65,8.67-0.34,14.27   c0.54,9.59,0.13,15.79-1.25,18.62c-1.38,2.83-3.35,4.6-5.92,5.33c-2.15,0.61-4.23,0.37-6.23-0.73c-2-1.09-3.32-2.77-3.96-5.02   c-0.66-2.32-0.65-4.8,0.03-7.43c0.68-2.63,3.11-7.04,7.28-13.24c2.62-3.99,4.62-8.21,5.98-12.65c-4.61,1.75-9.45,4.32-14.53,7.71   c-5.08,3.39-9.18,5.54-12.31,6.42c-3.47,0.99-6.37,0.96-8.69-0.08c-2.32-1.04-3.78-2.62-4.38-4.73c-0.7-2.46-0.35-4.79,1.05-7   c1.4-2.21,3.91-3.82,7.52-4.84c2.57-0.73,7.59-0.9,15.05-0.5c5.19,0.3,10.22-0.09,15.09-1.18   C170.98,1229.94,166.48,1227.09,161,1224.58z"></path>	</g>	<g>		<path class="st0" d="M1825.48,1233.15c4.87,1.08,9.9,1.48,15.09,1.18c7.46-0.39,12.48-0.22,15.05,0.5   c3.61,1.02,6.12,2.64,7.52,4.84c1.4,2.2,1.75,4.54,1.05,7c-0.6,2.12-2.06,3.69-4.38,4.73c-2.32,1.04-5.22,1.07-8.69,0.08   c-3.12-0.89-7.23-3.03-12.31-6.42c-5.08-3.4-9.92-5.97-14.53-7.71c1.37,4.44,3.36,8.66,5.98,12.65c4.17,6.2,6.59,10.61,7.28,13.24   c0.68,2.63,0.69,5.1,0.03,7.43c-0.64,2.25-1.96,3.93-3.96,5.02c-2,1.09-4.07,1.34-6.23,0.73c-2.57-0.73-4.54-2.51-5.92-5.33   c-1.38-2.82-1.79-9.03-1.25-18.62c0.31-5.6,0.19-10.35-0.34-14.27c-2.88,3.02-5.54,6.95-7.96,11.8   c-3.87,7.83-7.32,12.7-10.33,14.61c-3.02,1.91-5.88,2.48-8.59,1.71c-2.08-0.59-3.67-1.87-4.76-3.84   c-1.09-1.97-1.35-3.98-0.77-6.03c0.58-2.05,1.95-4.11,4.12-6.19c2.17-2.08,6.38-4.52,12.65-7.32c4.2-1.84,8.38-4.41,12.55-7.73   c-4-0.99-8.53-1.42-13.59-1.31c-8.89,0.13-14.83-0.22-17.82-1.07c-2.78-0.79-4.89-2.27-6.33-4.45c-1.45-2.18-1.91-4.19-1.38-6.04   c0.72-2.53,2.37-4.53,4.97-6.01c1.87-1.02,4.4-1.08,7.59-0.17c3.33,0.95,7.12,2.87,11.36,5.77c4.24,2.9,7.19,4.81,8.85,5.72   c1.65,0.91,4.17,2.03,7.55,3.36c-1.57-4.8-3.59-9.17-6.07-13.12c-4.28-6.6-6.83-11.38-7.64-14.34c-0.61-2.09-0.64-4.09-0.1-6.01   c0.66-2.32,2.02-4.08,4.08-5.26c2.06-1.19,4.07-1.5,6.01-0.95c1.73,0.49,3.36,1.71,4.87,3.65c1.51,1.94,2.5,4.49,2.95,7.64   c0.31,2.08,0.23,6.6-0.24,13.55c-0.3,4.49-0.15,9,0.45,13.52c2.92-3.16,5.63-7.15,8.12-11.98c4.19-7.89,7.29-12.62,9.31-14.19   c3.16-2.42,6.38-3.17,9.64-2.25c1.88,0.53,3.38,1.79,4.5,3.77c1.13,1.98,1.4,3.99,0.82,6.04c-0.64,2.25-2.04,4.44-4.22,6.55   c-2.17,2.11-6,4.42-11.47,6.93C1833.52,1227.09,1829.02,1229.94,1825.48,1233.15z"></path>	</g>	<g>		<path class="st0" d="M1002.63,1857.79c0.3,4.98,1.3,9.92,3.01,14.83c2.43,7.07,3.65,11.94,3.65,14.61   c0.01,3.75-0.86,6.61-2.59,8.56c-1.73,1.95-3.88,2.93-6.44,2.94c-2.2,0-4.12-0.97-5.76-2.91c-1.64-1.95-2.46-4.72-2.47-8.33   c-0.01-3.25,0.93-7.78,2.79-13.6c1.87-5.82,3.01-11.18,3.43-16.09c-3.9,2.54-7.41,5.61-10.52,9.23   c-4.82,5.71-8.39,9.26-10.73,10.63c-2.34,1.38-4.72,2.07-7.13,2.07c-2.34,0-4.31-0.8-5.92-2.42s-2.4-3.55-2.41-5.79   c-0.01-2.67,1.16-5.06,3.5-7.16c2.34-2.1,8.19-4.2,17.56-6.32c5.46-1.24,10-2.66,13.62-4.25c-3.69-1.94-8.21-3.41-13.53-4.41   c-8.59-1.57-14.22-3.54-16.89-5.92c-2.67-2.38-4-4.97-4.01-7.79c0-2.17,0.79-4.05,2.38-5.64c1.59-1.59,3.46-2.39,5.58-2.39   c2.13,0,4.49,0.75,7.09,2.26c2.6,1.51,6.1,4.9,10.51,10.16c2.92,3.53,6.55,6.84,10.88,9.94c-0.15-4.12-0.98-8.59-2.48-13.42   c-2.57-8.51-3.86-14.32-3.87-17.43c-0.01-2.89,0.84-5.33,2.54-7.31c1.7-1.99,3.51-2.99,5.42-2.99c2.63-0.01,5.01,1.04,7.14,3.12   c1.49,1.51,2.24,3.93,2.25,7.25c0.01,3.47-0.8,7.64-2.42,12.51c-1.62,4.88-2.64,8.24-3.07,10.08c-0.42,1.84-0.81,4.57-1.15,8.18   c4.18-2.82,7.83-5.97,10.95-9.44c5.17-5.93,9.07-9.69,11.69-11.29c1.84-1.16,3.76-1.74,5.75-1.75c2.41,0,4.47,0.82,6.18,2.48   c1.71,1.66,2.56,3.5,2.57,5.52c0,1.8-0.72,3.7-2.17,5.69c-1.45,1.99-3.63,3.63-6.54,4.94c-1.91,0.87-6.28,2.03-13.09,3.49   c-4.4,0.95-8.69,2.33-12.88,4.14c3.84,1.94,8.42,3.45,13.75,4.52c8.74,1.86,14.14,3.54,16.2,5.05c3.2,2.38,4.8,5.26,4.81,8.65   c0,1.95-0.79,3.74-2.38,5.37s-3.46,2.44-5.58,2.45c-2.34,0-4.83-0.75-7.46-2.26c-2.63-1.51-5.9-4.55-9.82-9.13   C1010.66,1863.86,1006.68,1860.31,1002.63,1857.79z"></path>	</g>	<g id="_x32_">		<g>			<g>				<path class="st0" d="M346.54,1553.02c0.3,0.32,0.78,0.42,1.14,0.2c4.28-2.47,29.06-17.82,24.09-39.51     c-5.79-25.29-16.72-33.63-16.72-33.63s-12.28,3.91-23.3,26.67C322.33,1526.23,342.99,1549.17,346.54,1553.02z"></path>				<path class="st0" d="M341.73,1557.4c0.26-0.26,0.3-0.66,0.1-1.01c-2.55-4.14-19.19-29.5-43.79-26.27     c-26.24,3.46-34.16,13.2-34.16,13.2s5.15,12.05,30.08,24.41C317.34,1579.31,338.46,1560.57,341.73,1557.4z"></path>				<g>					<path class="st0" d="M303.42,1496.93c0.29,0.34,0.76,0.45,1.13,0.25c4.39-2.27,29.85-16.46,25.89-38.35      c-4.61-25.54-15.14-34.37-15.14-34.37s-12.45,3.33-24.51,25.56C280.48,1469.05,300.05,1492.93,303.42,1496.93z"></path>					<path class="st0" d="M298.41,1501.09c0.27-0.25,0.33-0.65,0.15-1c-2.36-4.26-17.8-30.36-42.52-28.27      c-26.37,2.24-34.73,11.6-34.73,11.6s4.58,12.27,28.91,25.77C273.02,1521.85,294.99,1504.1,298.41,1501.09z"></path>					<g>						<path class="st0" d="M262.44,1435.18c0.24,0.37,0.69,0.55,1.09,0.4c4.65-1.66,31.79-12.3,30.81-34.52       c-1.14-25.92-10.39-36.09-10.39-36.09s-12.79,1.63-27.72,22.03C243.45,1404.46,259.64,1430.76,262.44,1435.18z"></path>						<path class="st0" d="M256.92,1438.62c0.3-0.21,0.42-0.6,0.28-0.97c-1.77-4.53-13.56-32.48-38.34-33.72       c-26.43-1.32-35.98,6.83-35.98,6.83s2.89,12.78,25.19,29.42C228.97,1455.78,253.13,1441.15,256.92,1438.62z"></path>						<g>							<path class="st0" d="M227.91,1369.34c0.23,0.38,0.67,0.57,1.08,0.43c4.7-1.52,32.14-11.35,31.82-33.59        c-0.37-25.95-9.31-36.39-9.31-36.39s-12.83,1.25-28.36,21.2C209.84,1338.08,225.25,1364.84,227.91,1369.34z"></path>							<path class="st0" d="M222.29,1372.63c0.31-0.2,0.43-0.58,0.31-0.97c-1.63-4.58-12.59-32.87-37.32-34.85        c-26.38-2.11-36.16,5.76-36.16,5.76s2.51,12.86,24.3,30.16C193.85,1388.95,218.43,1375.03,222.29,1372.63z"></path>						</g>					</g>				</g>			</g>		</g>		<g>			<g>				<path class="st0" d="M569.35,1739.16c0.39,0.21,0.87,0.13,1.14-0.19c3.21-3.75,21.46-26.49,9.54-45.28     c-13.89-21.92-26.97-26.14-26.97-26.14s-10.28,7.78-13.08,32.91C537.59,1721.98,564.72,1736.72,569.35,1739.16z"></path>				<path class="st0" d="M566.27,1744.9c0.16-0.33,0.06-0.72-0.24-0.99c-3.79-3.05-27.93-21.42-50.04-10.17     c-23.58,12.01-27.81,23.83-27.81,23.83s8.87,9.64,36.49,12.99C550.57,1773.69,564.24,1748.98,566.27,1744.9z"></path>				<g>					<path class="st0" d="M510,1700.66c0.38,0.22,0.86,0.17,1.15-0.14c3.38-3.6,22.66-25.47,11.63-44.79      c-12.86-22.54-25.73-27.36-25.73-27.36s-10.63,7.29-14.59,32.26C479.07,1682.02,505.49,1698.01,510,1700.66z"></path>					<path class="st0" d="M506.66,1706.25c0.18-0.32,0.1-0.72-0.19-1c-3.64-3.23-26.9-22.69-49.51-12.48      c-24.12,10.9-28.88,22.51-28.88,22.51s8.41,10.04,35.85,14.66C489.64,1734.28,504.44,1710.22,506.66,1706.25z"></path>					<g>						<path class="st0" d="M450.78,1656.09c0.35,0.27,0.83,0.29,1.16,0.02c3.83-3.11,25.88-22.19,17.54-42.82       c-9.72-24.06-21.82-30.57-21.82-30.57s-11.51,5.8-18.79,30.01C422.64,1633.46,446.67,1652.86,450.78,1656.09z"></path>						<path class="st0" d="M446.72,1661.18c0.22-0.3,0.19-0.7-0.06-1.01c-3.18-3.69-23.61-26.1-47.39-19.02       c-25.36,7.56-31.64,18.43-31.64,18.43s6.99,11.08,33.55,19.35C426.09,1686.67,443.99,1664.82,446.72,1661.18z"></path>						<g>							<path class="st0" d="M396.28,1605.53c0.34,0.28,0.82,0.31,1.16,0.05c3.92-3,26.52-21.41,18.81-42.28        c-9-24.34-20.91-31.2-20.91-31.2s-11.68,5.46-19.67,29.44C368.82,1582.08,392.27,1602.18,396.28,1605.53z"></path>							<path class="st0" d="M392.07,1610.5c0.23-0.29,0.21-0.7-0.03-1.01c-3.07-3.78-22.83-26.79-46.8-20.41        c-25.57,6.81-32.18,17.48-32.18,17.48s6.66,11.28,32.96,20.33C370.7,1635.37,389.24,1614.06,392.07,1610.5z"></path>						</g>					</g>				</g>			</g>		</g>		<g>			<g>				<path class="st0" d="M840.57,1838.72c0.44,0.06,0.87-0.17,1.01-0.57c1.76-4.61,11.28-32.17-6.27-45.84     c-20.46-15.96-34.2-15.52-34.2-15.52s-7.06,10.79-1.23,35.39C804.88,1833.24,835.4,1837.98,840.57,1838.72z"></path>				<path class="st0" d="M839.61,1845.16c0.04-0.37-0.18-0.7-0.56-0.85c-4.6-1.6-33.51-10.76-50.54,7.28     c-18.16,19.25-18.15,31.8-18.15,31.8s11.6,6.09,38.73-0.07C834.53,1877.56,839.07,1849.68,839.61,1845.16z"></path>				<g>					<path class="st0" d="M771.72,1822.46c0.44,0.08,0.87-0.13,1.04-0.52c1.97-4.53,12.76-31.61-4.13-46.09      c-19.7-16.89-33.44-17.09-33.44-17.09s-7.55,10.45-2.87,35.29C736.32,1815.33,766.58,1821.48,771.72,1822.46z"></path>					<path class="st0" d="M770.46,1828.85c0.06-0.36-0.15-0.71-0.52-0.87c-4.52-1.81-32.98-12.3-50.82,4.93      c-19.03,18.39-19.61,30.93-19.61,30.93s11.3,6.62,38.69,1.73C763.88,1860.97,769.71,1833.34,770.46,1828.85z"></path>					<g>						<path class="st0" d="M700.95,1800.45c0.42,0.14,0.88-0.01,1.1-0.38c2.56-4.22,16.89-29.61,2.09-46.22       c-17.25-19.38-30.85-21.43-30.85-21.43s-8.89,9.34-7.58,34.59C666.83,1788.62,695.99,1798.79,700.95,1800.45z"></path>						<path class="st0" d="M698.84,1806.61c0.1-0.35-0.05-0.73-0.39-0.94c-4.23-2.4-31.02-16.62-51.02-1.94       c-21.33,15.66-23.59,28.01-23.59,28.01s10.31,8.08,38.11,6.91C688.01,1837.56,697.5,1810.96,698.84,1806.61z"></path>						<g>							<path class="st0" d="M632.61,1771.2c0.42,0.15,0.88,0.02,1.11-0.34c2.69-4.14,17.76-29.1,3.46-46.14        c-16.67-19.88-30.2-22.33-30.2-22.33s-9.16,9.07-8.61,34.35C598.85,1758.37,627.7,1769.4,632.61,1771.2z"></path>							<path class="st0" d="M630.32,1777.3c0.11-0.35-0.03-0.73-0.37-0.95c-4.16-2.53-30.52-17.53-50.94-3.45        c-21.79,15.03-24.41,27.3-24.41,27.3s10.07,8.38,37.89,8.04C618.57,1807.91,628.85,1781.6,630.32,1777.3z"></path>						</g>					</g>				</g>			</g>		</g>		<g>			<g>				<g>					<path class="st0" d="M913.57,1849.59c0.44,0.02,0.85-0.24,0.96-0.65c1.36-4.75,8.52-33.01-10.12-45.15      c-21.74-14.17-35.39-12.57-35.39-12.57s-6.12,11.35,1.77,35.37C877.54,1847.14,908.34,1849.29,913.57,1849.59z"></path>					<path class="st0" d="M913.15,1856.09c0.01-0.37-0.24-0.69-0.63-0.8c-4.71-1.2-34.3-7.89-49.74,11.53      c-16.47,20.72-15.4,33.22-15.4,33.22s12.07,5.09,38.59-3.34C910.83,1888.8,913,1860.64,913.15,1856.09z"></path>				</g>			</g>		</g>	</g>	<g id="_x31_">		<g>			<g>				<path class="st0" d="M1651.37,1553.02c-0.3,0.32-0.78,0.42-1.14,0.2c-4.28-2.47-29.06-17.82-24.09-39.51     c5.79-25.29,16.72-33.63,16.72-33.63s12.28,3.91,23.3,26.67C1675.59,1526.23,1654.92,1549.17,1651.37,1553.02z"></path>				<path class="st0" d="M1656.19,1557.4c-0.26-0.26-0.3-0.66-0.1-1.01c2.55-4.14,19.19-29.5,43.79-26.27     c26.24,3.46,34.16,13.2,34.16,13.2s-5.15,12.05-30.08,24.41C1680.58,1579.31,1659.46,1560.57,1656.19,1557.4z"></path>				<g>					<path class="st0" d="M1694.5,1496.93c-0.29,0.34-0.76,0.45-1.13,0.25c-4.39-2.27-29.85-16.46-25.89-38.35      c4.61-25.54,15.14-34.37,15.14-34.37s12.45,3.33,24.51,25.56C1717.44,1469.05,1697.86,1492.93,1694.5,1496.93z"></path>					<path class="st0" d="M1699.51,1501.09c-0.27-0.25-0.33-0.65-0.15-1c2.36-4.26,17.8-30.36,42.52-28.27      c26.37,2.24,34.73,11.6,34.73,11.6s-4.58,12.27-28.91,25.77C1724.89,1521.85,1702.92,1504.1,1699.51,1501.09z"></path>					<g>						<path class="st0" d="M1735.48,1435.18c-0.24,0.37-0.69,0.55-1.09,0.4c-4.65-1.66-31.79-12.3-30.81-34.52       c1.14-25.92,10.39-36.09,10.39-36.09s12.79,1.63,27.72,22.03C1754.47,1404.46,1738.27,1430.76,1735.48,1435.18z"></path>						<path class="st0" d="M1741,1438.62c-0.3-0.21-0.42-0.6-0.28-0.97c1.77-4.53,13.56-32.48,38.34-33.72       c26.43-1.32,35.98,6.83,35.98,6.83s-2.89,12.78-25.19,29.42C1768.94,1455.78,1744.79,1441.15,1741,1438.62z"></path>						<g>							<path class="st0" d="M1770.01,1369.34c-0.23,0.38-0.67,0.57-1.08,0.43c-4.7-1.52-32.14-11.35-31.82-33.59        c0.37-25.95,9.31-36.39,9.31-36.39s12.83,1.25,28.36,21.2C1788.08,1338.08,1772.67,1364.84,1770.01,1369.34z"></path>							<path class="st0" d="M1775.63,1372.63c-0.31-0.2-0.43-0.58-0.31-0.97c1.63-4.58,12.59-32.87,37.32-34.85        c26.38-2.11,36.16,5.76,36.16,5.76s-2.51,12.86-24.3,30.16C1804.07,1388.95,1779.49,1375.03,1775.63,1372.63z"></path>						</g>					</g>				</g>			</g>		</g>		<g>			<g>				<path class="st0" d="M1428.57,1739.16c-0.39,0.21-0.87,0.13-1.14-0.19c-3.21-3.75-21.46-26.49-9.54-45.28     c13.89-21.92,26.97-26.14,26.97-26.14s10.28,7.78,13.08,32.91C1460.33,1721.98,1433.2,1736.72,1428.57,1739.16z"></path>				<path class="st0" d="M1431.65,1744.9c-0.16-0.33-0.06-0.72,0.24-0.99c3.79-3.05,27.93-21.42,50.04-10.17     c23.58,12.01,27.81,23.83,27.81,23.83s-8.87,9.64-36.49,12.99C1447.34,1773.69,1433.68,1748.98,1431.65,1744.9z"></path>				<g>					<path class="st0" d="M1487.92,1700.66c-0.38,0.22-0.86,0.17-1.15-0.14c-3.38-3.6-22.66-25.47-11.63-44.79      c12.86-22.54,25.73-27.36,25.73-27.36s10.63,7.29,14.59,32.26C1518.85,1682.02,1492.43,1698.01,1487.92,1700.66z"></path>					<path class="st0" d="M1491.26,1706.25c-0.18-0.32-0.1-0.72,0.19-1c3.64-3.23,26.9-22.69,49.51-12.48      c24.12,10.9,28.88,22.51,28.88,22.51s-8.41,10.04-35.85,14.66C1508.27,1734.28,1493.48,1710.22,1491.26,1706.25z"></path>					<g>						<path class="st0" d="M1547.14,1656.09c-0.35,0.27-0.83,0.29-1.16,0.02c-3.83-3.11-25.88-22.19-17.54-42.82       c9.72-24.06,21.82-30.57,21.82-30.57s11.51,5.8,18.79,30.01C1575.28,1633.46,1551.25,1652.86,1547.14,1656.09z"></path>						<path class="st0" d="M1551.2,1661.18c-0.22-0.3-0.19-0.7,0.06-1.01c3.18-3.69,23.61-26.1,47.39-19.02       c25.36,7.56,31.64,18.43,31.64,18.43s-6.99,11.08-33.55,19.35C1571.83,1686.67,1553.93,1664.82,1551.2,1661.18z"></path>						<g>							<path class="st0" d="M1601.64,1605.53c-0.34,0.28-0.82,0.31-1.16,0.05c-3.92-3-26.52-21.41-18.81-42.28        c9-24.34,20.91-31.2,20.91-31.2s11.68,5.46,19.67,29.44C1629.09,1582.08,1605.65,1602.18,1601.64,1605.53z"></path>							<path class="st0" d="M1605.84,1610.5c-0.23-0.29-0.21-0.7,0.03-1.01c3.07-3.78,22.83-26.79,46.8-20.41        c25.57,6.81,32.18,17.48,32.18,17.48s-6.66,11.28-32.96,20.33C1627.22,1635.37,1608.68,1614.06,1605.84,1610.5z"></path>						</g>					</g>				</g>			</g>		</g>		<g>			<g>				<path class="st0" d="M1157.34,1838.72c-0.44,0.06-0.87-0.17-1.01-0.57c-1.76-4.61-11.28-32.17,6.27-45.84     c20.46-15.96,34.2-15.52,34.2-15.52s7.06,10.79,1.23,35.39C1193.03,1833.24,1162.52,1837.98,1157.34,1838.72z"></path>				<path class="st0" d="M1158.3,1845.16c-0.04-0.37,0.18-0.7,0.56-0.85c4.6-1.6,33.51-10.76,50.54,7.28     c18.16,19.25,18.15,31.8,18.15,31.8s-11.6,6.09-38.73-0.07C1163.39,1877.56,1158.84,1849.68,1158.3,1845.16z"></path>				<g>					<path class="st0" d="M1226.19,1822.46c-0.44,0.08-0.87-0.13-1.04-0.52c-1.97-4.53-12.76-31.61,4.13-46.09      c19.7-16.89,33.44-17.09,33.44-17.09s7.55,10.45,2.87,35.29C1261.59,1815.33,1231.33,1821.48,1226.19,1822.46z"></path>					<path class="st0" d="M1227.45,1828.85c-0.06-0.36,0.15-0.71,0.52-0.87c4.52-1.81,32.98-12.3,50.82,4.93      c19.03,18.39,19.61,30.93,19.61,30.93s-11.3,6.62-38.69,1.73C1234.03,1860.97,1228.2,1833.34,1227.45,1828.85z"></path>					<g>						<path class="st0" d="M1296.97,1800.45c-0.42,0.14-0.88-0.01-1.1-0.38c-2.56-4.22-16.89-29.61-2.09-46.22       c17.25-19.38,30.85-21.43,30.85-21.43s8.89,9.34,7.58,34.59C1331.09,1788.62,1301.93,1798.79,1296.97,1800.45z"></path>						<path class="st0" d="M1299.07,1806.61c-0.1-0.35,0.06-0.73,0.39-0.94c4.23-2.4,31.02-16.62,51.02-1.94       c21.33,15.66,23.59,28.01,23.59,28.01s-10.31,8.08-38.11,6.91C1309.91,1837.56,1300.42,1810.96,1299.07,1806.61z"></path>						<g>							<path class="st0" d="M1365.31,1771.2c-0.42,0.15-0.88,0.02-1.11-0.34c-2.69-4.14-17.76-29.1-3.46-46.14        c16.67-19.88,30.2-22.33,30.2-22.33s9.16,9.07,8.61,34.35C1399.06,1758.37,1370.22,1769.4,1365.31,1771.2z"></path>							<path class="st0" d="M1367.6,1777.3c-0.11-0.35,0.03-0.73,0.37-0.95c4.16-2.53,30.52-17.53,50.94-3.45        c21.79,15.03,24.41,27.3,24.41,27.3s-10.07,8.38-37.89,8.04C1379.34,1807.91,1369.07,1781.6,1367.6,1777.3z"></path>						</g>					</g>				</g>			</g>		</g>		<g>			<g>				<g>					<path class="st0" d="M1084.35,1849.59c-0.44,0.02-0.85-0.24-0.96-0.65c-1.36-4.75-8.52-33.01,10.12-45.15      c21.74-14.17,35.39-12.57,35.39-12.57s6.12,11.35-1.77,35.37C1120.38,1847.14,1089.57,1849.29,1084.35,1849.59z"></path>					<path class="st0" d="M1084.76,1856.09c-0.01-0.37,0.24-0.69,0.63-0.8c4.71-1.2,34.3-7.89,49.74,11.53      c16.47,20.72,15.4,33.22,15.4,33.22s-12.07,5.09-38.59-3.34C1087.09,1888.8,1084.92,1860.64,1084.76,1856.09z"></path>				</g>			</g>		</g>	</g>	<g>		<g>			<path class="st10" d="M1014.04,1418.41c0,7.82-6.34,14.15-14.15,14.15c-7.82,0-14.15-6.33-14.15-14.15    c0-7.82,6.33-14.15,14.15-14.15C1007.7,1404.26,1014.04,1410.59,1014.04,1418.41z"></path>			<path class="st10" d="M936.88,1388.83c0,4.97-4.03,8.99-9,8.99c-4.98,0-9.01-4.02-9.01-8.99c0-4.98,4.03-9.01,9.01-9.01    C932.84,1379.82,936.88,1383.86,936.88,1388.83z"></path>			<path class="st10" d="M1078.35,1397.83c0,4.98-4.03,9.01-9.02,9.01c-4.95,0-8.98-4.03-8.98-9.01c0-4.97,4.03-8.99,8.98-8.99    C1074.32,1388.83,1078.35,1392.86,1078.35,1397.83z"></path>			<path class="st10" d="M992.18,1490.43c0,4.98-4.03,9.01-9,9.01c-4.97,0-9.01-4.03-9.01-9.01c0-4.97,4.03-9,9.01-9    C988.15,1481.43,992.18,1485.47,992.18,1490.43z"></path>			<path class="st10" d="M976.48,1481.13c-5.84-16.22-9.38-38.31-9.38-62.73l0,0c0-24.4,3.53-46.49,9.38-62.71l0,0    c5.86-16.05,13.83-27.04,24.71-27.32l0,0c10.85,0.28,18.81,11.28,24.68,27.32l0,0c5.85,16.22,9.39,38.31,9.4,62.71l0,0    c-0.01,24.42-3.55,46.51-9.4,62.73l0,0c-5.88,16.03-13.83,27.04-24.68,27.32l0,0C990.31,1508.17,982.34,1497.16,976.48,1481.13    L976.48,1481.13z M1021.05,1479.39c5.57-15.46,9.08-37.09,9.08-60.98l0,0c0-23.9-3.51-45.53-9.08-60.96l0,0    c-5.53-15.62-13.31-24.2-19.85-23.93l0,0c-6.55-0.28-14.35,8.31-19.87,23.93l0,0c-5.58,15.44-9.08,37.06-9.08,60.96l0,0    c0,23.89,3.51,45.52,9.08,60.98l0,0c5.52,15.61,13.32,24.18,19.87,23.91l0,0C1007.73,1503.57,1015.51,1494.99,1021.05,1479.39    L1021.05,1479.39z"></path>			<path class="st10" d="M925.47,1467.16c-1.63-2.54-2.39-5.51-2.37-8.63l0,0c0.35-18.73,24.46-45.9,59.62-68.77l0,0    c27.93-17.94,55.66-28.15,74.36-28.2l0,0c8.76,0,15.99,2.29,19.78,8.1l0,0c1.65,2.54,2.37,5.51,2.37,8.62l0,0    c-0.36,18.73-24.47,45.89-59.61,68.78l0,0c-27.93,17.94-55.67,28.13-74.36,28.18l0,0    C936.49,1475.24,929.26,1472.96,925.47,1467.16L925.47,1467.16z M985.51,1394.08c-34.59,22-57.63,49.96-57.26,64.44l0,0    c0,2.35,0.53,4.24,1.55,5.85l0,0c2.23,3.56,7.45,5.72,15.47,5.72l0,0c16.9,0.05,44.3-9.76,71.58-27.36l0,0    c34.57-22.04,57.61-49.99,57.25-64.45l0,0c0-2.34-0.51-4.24-1.54-5.82l0,0c-2.26-3.59-7.45-5.74-15.47-5.74l0,0    c-0.05,0-0.09,0-0.15,0l0,0C1040.03,1366.71,1012.7,1376.53,985.51,1394.08L985.51,1394.08z"></path>			<path class="st10" d="M982.73,1447.05l1.39-2.15l1.4-2.18c27.27,17.61,54.68,27.41,71.58,27.36l0,0c7.99,0,13.21-2.16,15.46-5.72    l0,0c1.02-1.6,1.55-3.51,1.55-5.85l0,0c0.36-14.48-22.68-42.42-57.25-64.45l0,0c-27.28-17.61-54.67-27.43-71.58-27.37l0,0    c-8.04,0-13.23,2.15-15.47,5.74l0,0c-1.02,1.6-1.55,3.48-1.55,5.84l0,0c-0.37,14.46,22.67,42.42,57.26,64.44l0,0l-1.4,2.18    L982.73,1447.05c-35.17-22.88-59.27-50.05-59.62-68.76l0,0c-0.02-3.14,0.74-6.11,2.37-8.63l0,0c3.79-5.83,11.03-8.11,19.8-8.11    l0,0c18.69,0.05,46.43,10.26,74.36,28.2l0,0c35.14,22.87,59.25,50.04,59.61,68.77l0,0c0,3.11-0.73,6.09-2.37,8.63l0,0    c-3.79,5.79-11.02,8.08-19.78,8.08l0,0C1038.38,1475.18,1010.65,1465,982.73,1447.05L982.73,1447.05z"></path>		</g>	</g>	<circle class="st11" cx="1000" cy="1000" r="855.67"></circle>	<circle class="st11" cx="1000" cy="1000" r="911.22"></circle>	<circle class="st11" cx="1000" cy="1000" r="801.44"></circle></g><g id="LOGO">	<g>		<g>			<path class="st1" d="M482.69,1139.68c-30.74,0-56.75-5.82-78.03-17.45c-21.28-11.63-37.43-28.31-48.44-50.03    c-11.01-21.71-16.52-47.69-16.52-77.93c0-28.37,5.72-53.42,17.17-75.13c11.45-21.71,27.87-38.7,49.28-50.96    c21.4-12.26,47.04-18.39,76.91-18.39c32.6,0,59.42,6.29,80.45,18.85c21.03,12.57,36.68,29.71,46.95,51.43    c10.27,21.72,15.4,46.45,15.4,74.2c0,18.67-2.74,36.68-8.21,54.04c-5.48,17.36-14,32.92-25.57,46.67    c-11.57,13.75-26.38,24.64-44.43,32.67C529.6,1135.66,507.95,1139.68,482.69,1139.68z M485.68,1105.89    c15.43,0,28.25-4.35,38.45-13.07c10.2-8.71,17.86-20.97,22.96-36.77c5.1-15.8,7.65-34.28,7.65-55.44    c0-24.39-2.68-45.3-8.03-62.72c-5.35-17.42-13.57-30.8-24.64-40.13c-11.08-9.33-25.2-14-42.37-14    c-16.43,0-29.68,4.64-39.76,13.91c-10.08,9.27-17.42,21.78-22.03,37.52c-4.61,15.74-6.91,33.32-6.91,52.73    c0,24.14,2.61,45.05,7.84,62.72c5.23,17.67,13.35,31.3,24.36,40.88C454.22,1101.1,468.38,1105.89,485.68,1105.89z"></path>		</g>	</g>	<g>		<g>			<path class="st10" d="M621.2,1137.65v-17.73l30.8-12.69c1.87-0.75,3.45-1.77,4.76-3.08s1.96-3.33,1.96-6.07V899.46    c0-2.61-0.65-4.48-1.96-5.6s-2.89-2.05-4.76-2.8l-30.8-12.69v-17.73h140.93c12.19,0,25.14,1.28,38.83,3.83    c13.69,2.55,27.07,6.88,40.13,12.97c13.07,6.1,24.89,14.44,35.47,25.01c10.58,10.58,19.04,23.86,25.39,39.85    c6.35,15.99,9.52,35.13,9.52,57.4c0,31.49-6.75,57.4-20.25,77.75c-13.5,20.35-31.73,35.47-54.69,45.36s-48.69,14.84-77.19,14.84    H621.2z M724.61,895.73v206.83h38.27c27.25,0,47.07-8.59,59.45-25.76c12.38-17.17,18.57-41.19,18.57-72.05    c0-22.65-3.58-42.09-10.73-58.33c-7.16-16.24-17.3-28.75-30.43-37.52c-13.13-8.77-28.78-13.16-46.95-13.16H724.61z"></path>		</g>	</g>	<g>		<g>			<path class="st10" d="M992.98,1137.72v-17.73l32.48-12.69c2.12-0.87,3.79-1.93,5.04-3.17c1.24-1.24,1.87-3.24,1.87-5.97V895.43    h-55.81c-2.24,0-4.01,0.59-5.32,1.77c-1.31,1.18-2.27,3.02-2.89,5.51l-9.52,41.25h-28.93v-83.25h270.85v83.25h-29.12l-9.52-41.25    c-0.5-2.36-1.53-4.17-3.08-5.41c-1.56-1.24-3.21-1.87-4.95-1.87h-55.81v202.72c0,2.74,0.71,4.79,2.15,6.16    c1.43,1.37,3.02,2.37,4.76,2.99l32.48,12.69v17.73H992.98z"></path>		</g>	</g>	<g>		<g>			<path class="st10" d="M1222.03,1138.1v-17.73l32.67-12.69c2.24-0.87,3.92-1.93,5.04-3.17c1.12-1.24,1.68-3.23,1.68-5.97V899.91    c0-2.61-0.65-4.51-1.96-5.69c-1.31-1.18-2.89-2.08-4.76-2.71l-32.67-12.69v-17.73h145.04v17.73l-32.67,12.69    c-1.99,0.75-3.67,1.68-5.04,2.8c-1.37,1.12-2.05,2.99-2.05,5.6v198.61c0,2.74,0.68,4.76,2.05,6.07c1.37,1.31,3.05,2.33,5.04,3.08    l32.67,12.69v17.73H1222.03z"></path>		</g>	</g>	<g>		<g>			<path class="st10" d="M473.78,760.73c4.63-1.4,9.06-2.55,13.64-3.9c377.19-109.24,620.7-39.46,822.86,33.29    c-0.05,0.46-0.1,0.91-0.15,1.36c-209.21-55.37-462.73-116.03-876.59,24.99C446.98,797.86,460.39,779.28,473.78,760.73z"></path>			<path class="st10" d="M473.78,760.73c4.63-1.4,9.06-2.55,13.64-3.9c377.19-109.24,620.7-39.46,822.86,33.29    c-0.05,0.46-0.1,0.91-0.15,1.36c-209.21-55.37-462.73-116.03-876.59,24.99C446.98,797.86,460.39,779.28,473.78,760.73z"></path>			<path class="st1" d="M546.81,659.45c99.73-20,197.43-30.19,290.52-27.65c191.44,2.59,338.6,67.33,473.82,130.01    c-0.41,1.33-0.73,2.6-1,3.71c-0.92,3.92-1.09,8.04-1.11,12.1c-190.26-68.83-410.03-141.42-742.14-60.5    c-24.55,5.54-50.02,12.05-75.36,18.98C510.02,710.5,528.44,684.95,546.81,659.45z"></path>		</g>	</g>	<g>		<path class="st12" d="M1583.99,636.24l-135.62-78.4l-136.09,78.4v156.8l135.53,78.33l136.18-78.65V636.24L1583.99,636.24z    M1575.93,787.99l-128.2,74.02l-127.38-73.54V641.08l128.03-73.92l127.55,73.65V787.99z"></path>		<path class="st10" d="M1581.77,634.98l-135.62-78.4l-136.09,78.4v156.8l135.53,78.33l136.18-78.65V634.98L1581.77,634.98z    M1573.71,786.73l-128.2,74.02l-127.38-73.54V639.82l128.03-73.92l127.55,73.65V786.73z"></path>		<path class="st13" d="M1578.93,633.36l-135.62-78.4l-136.09,78.4v156.8l135.53,78.33l136.18-78.65V633.36L1578.93,633.36z    M1570.87,785.11l-128.2,74.02l-127.38-73.54V638.2l128.03-73.92l127.55,73.65V785.11z"></path>		<path class="st9" d="M1511.45,785.84c-3.46-6.53-31.47-48.42-31.47-48.42l-16.44-24.09v-46.84c0,0,4.36-0.56,4.27-6.67   c-0.09-6.11-4.9-6.53-6.16-6.53h-31.61c-1.41,0-6.81,0.56-6.95,6.53c0,5.41,4.49,6.57,4.49,6.57l-0.06,46.96   c0,0-43.68,66.1-48.54,73.06c-4.86,6.95-5.72,20.99,7.87,22.76c14.23,1.12,101.9,0.28,117.74,0   C1520.15,806.93,1514.91,792.37,1511.45,785.84z M1501.66,803.28l-112.01,0.03c-7.8-1.4-6.49-10.1-5.25-12.1l49.42-74.92   l0.31-52.71v-3.78l22.75-0.01l0.04,0.93l0.5,55.5l48.89,74.15C1510.15,796.29,1505.99,802.8,1501.66,803.28z"></path>		<path class="st9" d="M1450.06,749.77c-2.53,0-4.58,2.05-4.58,4.58c0,2.53,2.05,4.58,4.58,4.58c2.53,0,4.58-2.05,4.58-4.58   C1454.63,751.82,1452.58,749.77,1450.06,749.77z M1450.06,749.77c-2.53,0-4.58,2.05-4.58,4.58c0,2.53,2.05,4.58,4.58,4.58   c2.53,0,4.58-2.05,4.58-4.58C1454.63,751.82,1452.58,749.77,1450.06,749.77z M1445.09,771.2c-2.06,0-3.72,1.67-3.72,3.73   c0,2.06,1.67,3.73,3.72,3.73c2.06,0,3.72-1.67,3.72-3.73C1448.81,772.87,1447.15,771.2,1445.09,771.2z M1450.06,749.77   c-2.53,0-4.58,2.05-4.58,4.58c0,2.53,2.05,4.58,4.58,4.58c2.53,0,4.58-2.05,4.58-4.58   C1454.63,751.82,1452.58,749.77,1450.06,749.77z M1461.58,764.26c-2.63,0-4.76,2.14-4.76,4.77c0,2.64,2.13,4.77,4.76,4.77   c2.63,0,4.76-2.14,4.76-4.77C1466.34,766.39,1464.21,764.26,1461.58,764.26z M1461.58,764.26c-2.63,0-4.76,2.14-4.76,4.77   c0,2.64,2.13,4.77,4.76,4.77c2.63,0,4.76-2.14,4.76-4.77C1466.34,766.39,1464.21,764.26,1461.58,764.26z M1445.09,771.2   c-2.06,0-3.72,1.67-3.72,3.73c0,2.06,1.67,3.73,3.72,3.73c2.06,0,3.72-1.67,3.72-3.73C1448.81,772.87,1447.15,771.2,1445.09,771.2   z M1450.06,749.77c-2.53,0-4.58,2.05-4.58,4.58c0,2.53,2.05,4.58,4.58,4.58c2.53,0,4.58-2.05,4.58-4.58   C1454.63,751.82,1452.58,749.77,1450.06,749.77z M1503.14,788.81l-29-44.49h-57.06l-30.03,46.47c-0.92,1.22-4.14,9.38,3.72,10.19   l109.66,0.09C1507.55,800.66,1505.67,791.91,1503.14,788.81z M1450.06,747.73c3.66,0,6.62,2.96,6.62,6.62   c0,3.66-2.96,6.62-6.62,6.62c-3.66,0-6.62-2.96-6.62-6.62C1443.44,750.69,1446.4,747.73,1450.06,747.73z M1431.93,767.81   c-4.6,0-8.33-3.73-8.33-8.33c0-4.6,3.73-8.33,8.33-8.33c4.6,0,8.33,3.73,8.33,8.33C1440.27,764.08,1436.53,767.81,1431.93,767.81z    M1439.7,774.93c0-2.98,2.41-5.4,5.39-5.4s5.39,2.42,5.39,5.4c0,2.98-2.41,5.4-5.39,5.4S1439.7,777.91,1439.7,774.93z    M1450.21,793.83c-2.53,0-4.57-2.05-4.57-4.58c0-2.53,2.05-4.58,4.57-4.58c2.52,0,4.57,2.05,4.57,4.58   C1454.79,791.78,1452.74,793.83,1450.21,793.83z M1461.58,775.93c-3.8,0-6.89-3.09-6.89-6.9c0-3.81,3.08-6.9,6.89-6.9   c3.8,0,6.88,3.09,6.88,6.9C1468.46,772.84,1465.38,775.93,1461.58,775.93z M1461.58,764.26c-2.63,0-4.76,2.14-4.76,4.77   c0,2.64,2.13,4.77,4.76,4.77c2.63,0,4.76-2.14,4.76-4.77C1466.34,766.39,1464.21,764.26,1461.58,764.26z M1450.06,758.92   c2.53,0,4.58-2.05,4.58-4.58c0-2.53-2.05-4.58-4.58-4.58c-2.53,0-4.58,2.05-4.58,4.58   C1445.48,756.88,1447.53,758.92,1450.06,758.92z M1450.21,786.08c-1.75,0-3.16,1.42-3.16,3.17c0,1.75,1.41,3.17,3.16,3.17   c1.74,0,3.16-1.42,3.16-3.17C1453.37,787.49,1451.96,786.08,1450.21,786.08z M1445.09,771.2c-2.06,0-3.72,1.67-3.72,3.73   c0,2.06,1.67,3.73,3.72,3.73c2.06,0,3.72-1.67,3.72-3.73C1448.81,772.87,1447.15,771.2,1445.09,771.2z M1450.06,749.77   c-2.53,0-4.58,2.05-4.58,4.58c0,2.53,2.05,4.58,4.58,4.58c2.53,0,4.58-2.05,4.58-4.58   C1454.63,751.82,1452.58,749.77,1450.06,749.77z M1461.58,764.26c-2.63,0-4.76,2.14-4.76,4.77c0,2.64,2.13,4.77,4.76,4.77   c2.63,0,4.76-2.14,4.76-4.77C1466.34,766.39,1464.21,764.26,1461.58,764.26z M1461.58,764.26c-2.63,0-4.76,2.14-4.76,4.77   c0,2.64,2.13,4.77,4.76,4.77c2.63,0,4.76-2.14,4.76-4.77C1466.34,766.39,1464.21,764.26,1461.58,764.26z M1450.06,749.77   c-2.53,0-4.58,2.05-4.58,4.58c0,2.53,2.05,4.58,4.58,4.58c2.53,0,4.58-2.05,4.58-4.58   C1454.63,751.82,1452.58,749.77,1450.06,749.77z"></path>		<path class="st9" d="M1435.74,599.4c-7.22,0-13.07,5.85-13.07,13.07c0,7.22,5.85,13.07,13.07,13.07c7.22,0,13.07-5.85,13.07-13.07   C1448.81,605.25,1442.96,599.4,1435.74,599.4z M1435.74,620.05c-4.19,0-7.59-3.4-7.59-7.59c0-4.19,3.4-7.59,7.59-7.59   s7.59,3.4,7.59,7.59C1443.33,616.65,1439.93,620.05,1435.74,620.05z"></path>		<path class="st9" d="M1459.28,616.61c-5.12,0-9.27,4.15-9.27,9.27c0,5.12,4.15,9.27,9.27,9.27c5.12,0,9.27-4.15,9.27-9.27   C1468.55,620.76,1464.4,616.61,1459.28,616.61z M1459.28,631.26c-2.97,0-5.38-2.41-5.38-5.38c0-2.97,2.41-5.38,5.38-5.38   s5.38,2.41,5.38,5.38C1464.66,628.85,1462.25,631.26,1459.28,631.26z"></path>		<path class="st9" d="M1444.89,635.15c-3.58,0-6.48,2.9-6.48,6.48c0,3.58,2.9,6.48,6.48,6.48c3.58,0,6.48-2.9,6.48-6.48   C1451.37,638.05,1448.47,635.15,1444.89,635.15z M1444.89,645.39c-2.08,0-3.76-1.68-3.76-3.76s1.68-3.76,3.76-3.76   c2.08,0,3.76,1.68,3.76,3.76S1446.97,645.39,1444.89,645.39z"></path>		<circle class="st9" cx="1431.93" cy="759.48" r="5.76"></circle>	</g>	<g>		<path class="st12" d="M1666.27,913.72l-112.15-64.83l-112.54,64.83v129.66l112.07,64.78l112.61-65.04V913.72L1666.27,913.72z    M1659.61,1039.21l-106.02,61.21l-105.34-60.82V917.72l105.87-61.13l105.48,60.9V1039.21z"></path>		<path class="st10" d="M1664.44,912.67l-112.15-64.83l-112.54,64.83v129.66l112.07,64.78l112.61-65.04V912.67L1664.44,912.67z    M1657.78,1038.16l-106.02,61.21l-105.34-60.82V916.68l105.87-61.13l105.48,60.9V1038.16z"></path>		<path class="st13" d="M1662.09,911.34l-112.15-64.83l-112.54,64.83V1041l112.07,64.78l112.61-65.04V911.34L1662.09,911.34z    M1655.42,1036.83l-106.02,61.21l-105.34-60.82V915.34l105.87-61.13l105.48,60.9V1036.83z"></path>		<g>			<path class="st1" d="M1556.41,939.72c-1.1,0-2.27,0.61-3.55,1.77v0.45l-57.63,30.79h-16.7c0.64-2.11,0.26-3.07-0.99-3.07    c-0.53,0-1.22,0.18-2.06,0.52c-0.43-1.51-0.99-2.3-1.71-2.3c-0.59,0-1.27,0.53-2.07,1.64c-0.73-1.24-1.42-1.86-2.1-1.86    c-0.73,0-1.42,0.73-2.09,2.18c-0.88-0.5-1.58-0.75-2.11-0.75c-1.12,0-1.48,1.08-1.23,3.04c-0.48-0.08-0.9-0.12-1.27-0.12    c-1.99,0-2.33,1.18-1.03,3.52c-2.49,1.16-2.7,2.55-0.44,4.18c-1.99,1.93-1.76,3.23,1.16,3.75c-1.15,2.23-0.64,3.28,1.32,3.28    c0.32,0,0.67-0.03,1.06-0.08c-0.1,1.83,0.33,2.76,1.29,2.76c0.57,0,1.32-0.32,2.25-0.96c0.61,1.41,1.25,2.11,1.92,2.11    c0.65,0,1.32-0.64,2.03-1.9c0.99,0.84,1.81,1.26,2.45,1.26c0.94,0,1.52-0.91,1.7-2.77c0.69,0.34,1.3,0.54,1.78,0.54    c0.65,0,1.1-0.35,1.27-1.15l73.54-0.03v7.28h-9.74l-0.02,7.56h50.75l-0.01-7.59l-17.36,0.03l-0.03-1.51l5.42,0.03l0.04-12.32    h29.39l-0.02-13.77h3.61l0.03,0v-14.86h-0.02l-30.02-0.01v13.45h-8.45l-16.96-22.85    C1558.73,940.43,1557.61,939.72,1556.41,939.72L1556.41,939.72z M1498.46,972.75l54.2-28.99h1.05v28.99H1498.46L1498.46,972.75z     M1561.88,964.8l-4.31-17.82l2.13-2.31l13.64,20.13H1561.88L1561.88,964.8z M1604.08,957.58v-3.73h2.16v3.73H1604.08    L1604.08,957.58z M1598.63,957.58v-3.73h2.14v3.73H1598.63L1598.63,957.58z M1593.15,957.72v-3.86h2.18v3.86H1593.15    L1593.15,957.72z M1588.03,957.72v-3.86h2.22v3.86H1588.03L1588.03,957.72z M1545.44,984.91l-5.12-5.12l5.3-5.3l5.12,5.12    L1545.44,984.91L1545.44,984.91z M1519.79,984.91l-5.12-5.12l5.3-5.3l5.12,5.12L1519.79,984.91L1519.79,984.91z M1507.01,984.91    l-5.12-5.12l5.3-5.3l5.12,5.12L1507.01,984.91L1507.01,984.91z M1494,984.91l-5.12-5.12l5.3-5.3l5.12,5.12L1494,984.91    L1494,984.91z M1539.12,978.26l-3.51-3.57h7.01v0.22L1539.12,978.26L1539.12,978.26z M1532.63,985.1l-5.12-5.12l5.3-5.3    l5.12,5.12L1532.63,985.1L1532.63,985.1z M1551.91,978.26l-3.57-3.36h4.62v2.56L1551.91,978.26L1551.91,978.26z M1526.35,978.48    l-3.51-3.57h7.02v0.22L1526.35,978.48L1526.35,978.48z M1513.54,978.48l-3.51-3.57h7.02v0.22L1513.54,978.48L1513.54,978.48z     M1500.39,978.48l-3.51-3.57h7.02v0.22L1500.39,978.48L1500.39,978.48z M1487.75,978.48l-3.51-3.57h7.01v0.22L1487.75,978.48    L1487.75,978.48z M1481.49,979.99c1.62-0.29,1.43-2.76,0.05-2.94c-1.14-0.64-0.95-1.37-0.02-2.15h0.31l4.33,4.38    c0.08,0.24,0.09,0.47,0,0.7l-4.73,4.73l-0.35-0.06l-0.33-0.33v-0.26l0.78-0.09c0.45-0.92,0.37-1.89-0.04-2.9l-0.74-0.02v-1.09    L1481.49,979.99L1481.49,979.99z M1563.47,993.79v-13.77h1.39l0.07,12.28l5.36,0v1.49H1563.47L1563.47,993.79z M1509.81,984.65    v-0.22l3.6-3.45l3.61,3.67H1509.81L1509.81,984.65z M1496.91,984.65v-0.22l3.61-3.45l3.6,3.67H1496.91L1496.91,984.65z     M1484.28,984.65v-0.22l3.61-3.45l3.61,3.67H1484.28L1484.28,984.65z M1522.88,984.78v-0.22l3.6-3.45l3.61,3.67H1522.88    L1522.88,984.78z M1535.64,984.84v-0.22l3.61-3.45l3.61,3.67H1535.64L1535.64,984.84z M1552.95,984.78l-4.41-0.13l2.87-3.09    l1.14-0.15l0.41,0.38V984.78L1552.95,984.78z"></path>		</g>		<path class="st9" d="M1638.13,946.37c-2.74-6.51-7.11-12.27-12.94-17.38l-7.97,7.19l-12.42-9.54l4.18-9.28   c-5.94-3.92-13.02-6.19-21.17-6.8l-1.44,10.06l-16.6,0.13l-1.18-10.2c-7.78,0.59-14.9,2.78-21.31,6.67l4.12,9.15l-12.35,9.93   l-7.84-7.84c-5.58,5-9.93,11.56-13.07,18.68l9.06,4.56v1.83h1l13.88-7.2c23.47-24.74,57.84-20.89,75.69,5.49   c15.11,25.47,6.33,56.7-22.92,68.84c-27.61,8.74-53.24-2.94-62.3-32.24l-9.32-0.09l3.83,13.42l-8.98,4.76   c3,7.12,7.55,13.38,13.33,18.07l7.06-7.45l13.11,9.8l-4.49,9.15c7.09,4.27,14.28,6.28,21.52,6.75l1.44-10.28l16.34-0.17   l1.48,10.46c8.39-0.58,15.35-2.97,21.17-6.8l-4.53-9.37l12.68-9.5l8.06,7.15c5.26-4.49,9.5-10.3,12.85-17.3l-9.24-5.66l4.84-15.08   l11.07,1.57c0.88-7.06,0.86-14.49,0-22.26l-11.02,1.61l-4.79-15.34l9.14-4.98L1638.13,946.37z"></path>		<g>			<path class="st1" d="M1536.17,1001.57c-5.95,0-11.74,0.42-17.36,1.28c-5.35,1.33-5.48,7.75-0.52,9.06h36.32    c5.38-1.16,4.78-7.94-0.01-9.06C1548.29,1002,1542.15,1001.57,1536.17,1001.57L1536.17,1001.57z"></path>		</g>	</g>	<g>		<path class="st12" d="M1572.89,1156.4l-87.55-50.61l-87.85,50.61v101.22l87.49,50.57l87.91-50.77V1156.4L1572.89,1156.4z    M1567.68,1254.36l-82.76,47.78l-82.23-47.48v-95.14l82.65-47.72l82.34,47.54V1254.36z"></path>		<path class="st2" d="M1571.46,1155.58l-87.55-50.61l-87.85,50.61v101.22l87.49,50.57l87.91-50.77V1155.58L1571.46,1155.58z    M1566.25,1253.55l-82.76,47.78l-82.23-47.48v-95.14l82.65-47.72l82.34,47.54V1253.55z"></path>		<path class="st13" d="M1569.62,1154.54l-87.55-50.61l-87.85,50.61v101.22l87.49,50.57l87.91-50.77V1154.54L1569.62,1154.54z    M1564.42,1252.5l-82.76,47.78l-82.23-47.48v-95.14l82.65-47.72l82.34,47.54V1252.5z"></path>		<g>			<path class="st1" d="M1526.43,1148.62l-51.02,37.79h14.39l-32.31,29.73h12.89l-21.2,17.75c-0.52-0.05-1.04-0.08-1.57-0.08    c-5.22,0-11.04,2.6-15.57,7.46c-0.29,0.31-0.56,0.62-0.83,0.93l3.26,3.04l-6.87,7.38l-0.04,0.04c-0.55,0.6-0.89,1.4-0.89,2.28    c0,1.86,1.51,3.37,3.37,3.37c0.97,0,1.84-0.41,2.45-1.06h0l0.07-0.07l0.03-0.03l6.81-7.32l5.39,5.02l-6.46,6.94l-0.06,0.07    c-0.55,0.6-0.88,1.39-0.88,2.27c0,1.86,1.51,3.37,3.37,3.37c0.96,0,1.83-0.4,2.44-1.05l0.07-0.07l6.45-6.93l3.2,2.99    c0.3-0.29,0.6-0.6,0.89-0.91c5.02-5.39,7.14-12.18,6.11-17.73l32.98-37.62l-9.8,0.17l26.56-30.71l-8.51-0.14L1526.43,1148.62    L1526.43,1148.62z"></path>		</g>		<path class="st14" d="M1482.88,1168.95c-19.96,0-36.15,16.18-36.15,36.15c0,8.31,2.8,15.96,7.52,22.07l1.93-1.54   c-4.38-5.68-6.98-12.8-6.98-20.53c0-18.6,15.08-33.67,33.67-33.67c2.78,0,5.49,0.34,8.07,0.97l2.49-1.88   C1490.1,1169.49,1486.56,1168.95,1482.88,1168.95z M1508.88,1179.98l-1.66,1.84c5.78,6.05,9.34,14.25,9.34,23.27   c0,18.6-15.08,33.67-33.67,33.67c-4.64,0-9.06-0.94-13.08-2.63c-0.56,0.63-1.14,1.28-1.73,1.94c4.52,2.03,9.53,3.16,14.81,3.16   c19.96,0,36.15-16.18,36.15-36.15C1519.03,1195.34,1515.16,1186.49,1508.88,1179.98z"></path>		<path class="st9" d="M1537.65,1203.6l-8.94-1.51c-0.32-4.88-1.39-9.55-3.11-13.89l6.67-4.74c0.55-0.39,0.68-1.16,0.29-1.71   l-11.11-15.64c0,0,0,0,0-0.01l-11.58,12.79c6.57,6.77,10.62,16.01,10.62,26.19c0,20.77-16.83,37.6-37.6,37.6   c-5.65,0-11.01-1.25-15.82-3.48c-1.94,2.2-3.93,4.48-5.67,6.48c1.54,0.82,3.13,1.55,4.77,2.19c-0.07,0.12-0.11,0.25-0.14,0.39   l-1.53,9.02c-0.11,0.66,0.34,1.3,1,1.41l18.91,3.2c0.66,0.11,1.3-0.34,1.41-1l1.52-9.02c0.07-0.39-0.06-0.77-0.32-1.04   c4.72-0.42,9.23-1.56,13.42-3.3c0.03,0.18,0.1,0.36,0.21,0.53l5.3,7.46c0.39,0.55,1.16,0.68,1.71,0.29l15.64-11.11   c0.55-0.39,0.68-1.16,0.29-1.71l-5.3-7.46c-0.16-0.23-0.39-0.38-0.63-0.46c3-3.47,5.48-7.4,7.33-11.67c0.01,0,0.01,0,0.01,0   l9.02,1.53c0.66,0.11,1.3-0.34,1.41-1l3.2-18.91C1538.77,1204.35,1538.31,1203.71,1537.65,1203.6z M1482.88,1167.49   c4.19,0,8.22,0.69,11.98,1.95l7.74-5.84c-0.71-0.34-1.42-0.66-2.15-0.96l1.23-7.26c0.11-0.66-0.34-1.3-1-1.41l-18.91-3.2   c-0.66-0.11-1.3,0.34-1.41,1l-1.27,7.54c-5.19,0.42-10.14,1.71-14.69,3.72l-4.17-5.87c-0.39-0.55-1.16-0.68-1.71-0.29   l-15.64,11.11c-0.55,0.39-0.68,1.16-0.29,1.71l4.61,6.48c-3.1,3.83-5.6,8.16-7.36,12.87l-7.69-1.3c-0.66-0.11-1.3,0.34-1.41,1   l-3.2,18.91c-0.11,0.66,0.34,1.3,1,1.41l8.74,1.48c0.57,4.79,1.87,9.36,3.8,13.58l-7.15,5.08c-0.55,0.39-0.68,1.16-0.29,1.71   l2.25,3.16c6.66-4.09,12.66-2.4,12.66-2.4l4.56-3.63c-4.91-6.35-7.83-14.32-7.83-22.97   C1445.28,1184.33,1462.11,1167.49,1482.88,1167.49z"></path>		<path class="st12" d="M1572.89,1156.4l-87.55-50.61l-87.85,50.61v101.22l87.49,50.57l87.91-50.77V1156.4L1572.89,1156.4z    M1567.68,1254.36l-82.76,47.78l-82.23-47.48v-95.14l82.65-47.72l82.34,47.54V1254.36z"></path>		<path class="st10" d="M1571.46,1155.58l-87.55-50.61l-87.85,50.61v101.22l87.49,50.57l87.91-50.77V1155.58L1571.46,1155.58z    M1566.25,1253.55l-82.76,47.78l-82.23-47.48v-95.14l82.65-47.72l82.34,47.54V1253.55z"></path>		<path class="st13" d="M1569.62,1154.54l-87.55-50.61l-87.85,50.61v101.22l87.49,50.57l87.91-50.77V1154.54L1569.62,1154.54z    M1564.42,1252.5l-82.76,47.78l-82.23-47.48v-95.14l82.65-47.72l82.34,47.54V1252.5z"></path>		<path class="st13" d="M1509.66,1175.63l-26.56,30.71l9.8-0.17l-32.98,37.62c1.03,5.55-1.09,12.34-6.11,17.73   c-0.29,0.31-0.59,0.62-0.89,0.91l-3.2-2.99l-6.45,6.93l-0.07,0.07c-0.61,0.65-1.48,1.05-2.44,1.05c-1.86,0-3.37-1.51-3.37-3.37   c0-0.88,0.33-1.67,0.88-2.27l0.06-0.07l6.46-6.94l-5.39-5.02l-6.81,7.32l-0.03,0.03l-0.07,0.07h0c-0.61,0.65-1.48,1.06-2.45,1.06   c-1.86,0-3.37-1.51-3.37-3.37c0-0.88,0.34-1.68,0.89-2.28l0.04-0.04l6.87-7.38l-3.26-3.04c0.27-0.32,0.54-0.63,0.83-0.93   c4.98-5.36,11.55-7.96,17.14-7.38l21.2-17.75h-12.89l32.31-29.73h-14.39l51.02-37.79l-25.28,26.86L1509.66,1175.63z"></path>		<path class="st14" d="M1482.88,1168.95c-19.96,0-36.15,16.18-36.15,36.15c0,8.31,2.8,15.96,7.52,22.07l1.93-1.54   c-4.38-5.68-6.98-12.8-6.98-20.53c0-18.6,15.08-33.67,33.67-33.67c2.78,0,5.49,0.34,8.07,0.97l2.49-1.88   C1490.1,1169.49,1486.56,1168.95,1482.88,1168.95z M1508.88,1179.98l-1.66,1.84c5.78,6.05,9.34,14.25,9.34,23.27   c0,18.6-15.08,33.67-33.67,33.67c-4.64,0-9.06-0.94-13.08-2.63c-0.56,0.63-1.14,1.28-1.73,1.94c4.52,2.03,9.53,3.16,14.81,3.16   c19.96,0,36.15-16.18,36.15-36.15C1519.03,1195.34,1515.16,1186.49,1508.88,1179.98z"></path>	</g></g></svg>